<?xml version="1.0" encoding="utf-8"?>
<!-- Generator: Adobe Illustrator 18.1.0, SVG Export Plug-In . SVG Version: 6.00 Build 0)  -->
<svg version="1.1" xmlns="http://www.w3.org/2000/svg" xmlns:xlink="http://www.w3.org/1999/xlink" x="0px" y="0px"
   viewBox="0 0 373.1 210.1" enable-background="new 0 0 373.1 210.1" xml:space="preserve">
<g id="Top">
  <g>
    <path fill="#ea5858" d="M135.3,98.9c0.8,0.9,1,2,0.6,3.2c-2.8,8.8-11.2,18-21.7,18.8c-0.4,0-0.8,0-1.2,0c-3.2,0-5.9-1.1-8.2-3.2
      c-4.8-4.6-6.9-14.1-6-27c-4.3,9-8.8,19-13.4,30.1l-0.3,0.8l-0.9,0.4c-2.4,1-4.6,1.5-6.4,1.7c-0.3,0-0.6,0-0.9,0
      c-2.4,0-3.8-0.8-4.7-1.5c-1.2-1-1.8-2.6-1.8-4.4c0.2-8.6,1.8-25.2,4.2-42.2c-1.3,0.5-2.5,1-3.7,1.4c-4,21.3-12.4,34.9-18.8,42.6
      c-8.1,9.8-17.7,15.8-26.3,16.5c-0.5,0-1.1,0.1-1.7,0.1c-8.5,0-24.3-4.9-24.2-41.6c0.1-38.8,21.9-63.9,32.4-67.3
      c4.1-6.6,10.6-10.7,18-11.3c0.5,0,0.9-0.1,1.3-0.1c12.8,0,21.6,14.7,21.5,36.4c0,4.7-0.3,9.7-0.9,15.3c1.5-0.4,3-0.9,4.5-1.5
      l5.6-2.6c1.7-0.8,3.4-1.3,5-1.4c0.3,0,0.5,0,0.8,0c1.8,0,3.4,0.5,4.4,1.5c1.1,1,1.5,2.5,1.2,4.1c-0.8,4.3-2,9.5-3.4,15
      c-0.7,2.8-1.4,5.8-2.1,8.7c5-11.1,9-18.8,13.9-27.5c1.5-2.6,4.2-4.3,7.3-4.6c0.3,0,0.5,0,0.8,0c3.3,0,6.7,1.6,9.6,4.5l0.6,0.6
      l-0.2,0.9c-8.9,37.3-4.5,44.2-3.6,45.1c0.1,0.1,0.3,0.3,0.5,0.3c2-0.2,5.2-1.4,9.4-10.8l0.2-0.5l0.5-0.3c1.1-0.8,2.4-1.2,3.7-1.4
      c0.2,0,0.4,0,0.5,0C133.2,97.5,134.5,98,135.3,98.9z M32.5,123.7c7.3-0.6,16.6-15.5,20.5-43.1c-0.5,0-1.1,0-1.6,0
      c-7.3,0-13.1-2.2-17.2-6.5c-4.9-5.1-7.3-13.3-7.3-24.3c0-0.2,0-0.3,0-0.5c-5.1,13.5-7.5,29.5-7.6,40.7
      c-0.1,20.4,6.5,33.7,12.9,33.7C32.3,123.8,32.4,123.8,32.5,123.7 M54.4,68.2c0.3-4.6,0.5-8.9,0.5-13.5c0-17.3-6.3-24.2-9.9-24.2
      c-0.1,0-0.1,0-0.2,0c-1.9,0.2-4,3-4,8.8C40.7,55.5,45.3,65.2,54.4,68.2"/>
  </g>
  <g>
    <path fill="#ea5858" d="M334.1,83.4c0.8,0.8,1,2,0.6,3.2c-2.8,8.7-11.1,18-21.7,19c-0.5,0-0.9,0.1-1.4,0.1
      c-3.6,0-7.6-1.2-10.2-5.7c-3.8,4.8-7.9,7-13.3,7.5c-0.5,0-1,0.1-1.5,0.1c-10.1,0-16.1-8.3-16-22.5c0-6.9,1.7-14.1,4.8-20.4
      c-2.8,0.9-5.6,1.6-7.8,1.9c0.1,14.9-4.9,29-13.1,37.2c-4.5,4.5-9.9,7.1-15.7,7.6c-0.5,0-1,0.1-1.6,0.1c-3.8,0-6.8-1.1-9.2-3.4
      c-7.9-7.6-5.6-26.3-2.9-41.9c-3.2,0.7-6.4,1.6-9.6,1.6c-1.4,0-2.7-0.2-4-0.6c-4.6-1.5,11.3-9.5,13.3-10.8c0.7-0.4,1.5-0.9,2.2-1.3
      l0.8-0.7c3.8-2.6,8.5-4.4,11.9-4.7c0.3,0,0.6,0,0.9,0c2.3,0,3.5,0.8,4.2,1.5c0.2,0.2,0.3,0.3,0.4,0.5c1,1,1.1,2,0.6,3.1
      c0,0.4-0.1,0.7-0.2,1.1c-7.8,28.2-6.1,45-3.7,46c1.4-0.1,2.9-0.9,4.2-2.3c5.2-5.5,7.7-18.8,6.4-33.9c-4-2.3-5.7-6.6-4.3-11.3
      c1.6-5.1,6.3-9,11.4-9.4l1.5-0.1l0.7,1.4c1,2.1,4.1,8.5,11.1,8.5c0.3,0,0.6,0,0.9,0c2.3-0.2,8.8-1.3,11.5-2.8
      c0.4-0.2,0.7-0.3,1.1-0.4c4.3-3,9.3-5,15.2-5.5c0.5,0,1-0.1,1.5-0.1c3.7,0,8.1,1,11,3.9c2.2,2.2,3.1,5.2,2.5,8.6
      c1.4,1.3,2.5,4,0.7,9.7c-5.1,16.1-4.8,24.2-2.9,26.5c0.4,0.4,0.8,0.6,1.4,0.6c2.2-0.2,5.4-1.5,9.6-10.8l0.2-0.5l0.5-0.3
      c1.1-0.8,2.4-1.2,3.7-1.3c0.2,0,0.4,0,0.5,0C332,82,333.3,82.5,334.1,83.4z M300.5,70.8c-2.1-0.8-2.9-2.3-2.8-4.8l0-0.7l0.5-0.5
      c2.2-2.2,3.5-6.3,2.7-8.1c-0.2-0.4-0.5-0.7-1.3-0.7c-0.1,0-0.2,0-0.3,0c-6.1,0.5-11,17-11.1,30.4c0,7.5,1.8,10.7,2.8,10.7
      C291.7,97.1,297.9,95.9,300.5,70.8"/>
  </g>
  <g>
    <path fill="#ea5858" d="M350.7,81.7c6.2,0,10.1,3.4,10.5,9.4c0.3,2.6-0.7,5.1-2.7,7.3c-2.1,2.2-5,3.6-8,3.8
      c-0.5,0-0.9,0.1-1.4,0.1c-6,0-10.1-3.2-10.6-8.4c-0.3-2.9,0.9-6,3.2-8.4c2.1-2.2,4.8-3.5,7.6-3.7
      C349.8,81.7,350.3,81.7,350.7,81.7z"/>
  </g>
  <g>
    <path fill="#ea5858" d="M337.8,127.3c4.4,3.3-4.2,10-11.3,10c-1.7,0-3.3-0.4-4.6-1.3c-13.1-8.9-29.2-10.8-44.9-10.8
      c-0.6,0-1.2,0-1.9,0c-18.1,0.2-36.3,2-54,5.6c-9.6,2-19.9,4.9-29.2,7.8c-3.7,21.3-7.2,42.8-10.8,64.1c-0.5,3-9.1,7.3-13.7,7.3
      c-1.5,0-2.6-0.5-2.8-1.6c-3.9-19.5-14.5-37.6-30-50.1c-6.2,1.9-12.4,3.7-18.7,5.2c-14.3,3.5-29.6,7.4-44.7,7.4
      c-10.7,0-21.2-2-31-7.5c-13.5-7.6,0.7-18.4,8.2-22.1c11.4-5.6,23.7-9.2,36.3-10.5c3.1-0.3,6.3-0.5,9.4-0.5
      c18.7,0,37.6,5.3,52.7,16.4c10-3.5,19.9-7.2,29.9-10.8l2.8-13.7l2.1-12.1c-3.4,4.1-7.3,5.9-10.4,6.1c-0.5,0-0.9,0.1-1.4,0.1
      c-4.2,0-7.8-1.6-10.4-4.6c-7.6-8.8-6.9-29.8,1.8-53.4l0.4-1l1.1-0.3c4.3-1.3,7.6-2,10-2.2c0.4,0,0.8,0,1.2,0
      c2.1,0,3.6,0.5,4.4,1.6c1.3,1.6,0.6,3.8,0,5.3c-8.3,20.9-8.2,37.5-4.9,41.4c0.2,0.2,0.5,0.6,0.9,0.6c0.6,0,5.8-1.4,9.8-33.6
      l0.1-0.8l0.7-0.5c4.1-3,8.8-5,12.5-5.3c0.3,0,0.6,0,0.9,0c1.8,0,3.3,0.5,4.3,1.4c0.7,0.7,1.5,1.9,1.2,3.9l-4.2,27.3
      c0,0.4-0.9,7.2-4.4,26.4l-1.5,8.1l0.8-0.3c24-7.5,48.7-12.4,73.8-14.1c7.6-0.5,15.6-1,23.5-1C308.2,115.2,324.8,117.5,337.8,127.3
      z M111.8,156.8c5.2-1,10.4-2.3,15.5-3.7c-0.8-0.5-1.7-1.1-2.5-1.5c-11.2-6.5-23.7-10.5-36.6-11.3c-1.1-0.1-2.2-0.1-3.4-0.1
      c-9.6,0-20.3,2.4-28.7,6.9c-1.8,0.9-4.8,3.1-4.8,5.4c-0.1,2.7,2.6,4.2,4.7,4.8c5.8,1.8,8.3,1.7,18.3,2.2c2.5,0.1,5.1,0.2,7.6,0.2
      C91.9,159.7,102,158.7,111.8,156.8 M170.9,173.1c1.6-9.5,3.4-19.5,5-29c-7.4,2.6-15.1,5.5-22.5,8.1
      C160.1,158.2,166.3,165.5,170.9,173.1"/>
  </g>
  <g>
    <path fill="#ea5858" d="M366.5,0c2.5,0,4.3,0.5,5.4,1.6c0.7,0.7,1.4,1.9,1,3.8c-1.1,6.6-13.1,62.9-13.7,65.3l0,0.2l-0.1,0.2
      c-1,2.3-3.5,3.9-6.3,4.1c-0.2,0-0.5,0-0.7,0c-2.3,0-4.4-0.9-5.9-2.5l-0.5-0.5l4.6-67.5l0.8-0.6c2.4-1.6,8.9-3.8,13.8-4.2
      C365.5,0,366,0,366.5,0z"/>
  </g>
</g>
</svg>
