<?xml version="1.0" encoding="utf-8"?>
<!-- Generator: Adobe Illustrator 18.1.0, SVG Export Plug-In . SVG Version: 6.00 Build 0)  -->
<svg version="1.1" xmlns="http://www.w3.org/2000/svg" xmlns:xlink="http://www.w3.org/1999/xlink" x="0px" y="0px"
	 viewBox="0 0 378.4 215.7" enable-background="new 0 0 378.4 215.7" xml:space="preserve">
<g id="Shadow" opacity="0.16">
	<path d="M95.4,66.4C95.4,66.5,95.4,66.5,95.4,66.4C95.5,66.5,95.5,66.5,95.4,66.4L95.4,66.4z"/>
	<path d="M140.6,104.5c0,0-0.1-0.1-0.1-0.1l-2.5-2.5c-0.8-0.9-2.1-1.4-3.6-1.4c-0.2,0-0.4,0-0.5,0c-1.4,0.1-2.7,0.6-3.7,1.4
		l-0.5,0.3l-0.2,0.5c-3.6,8.1-6.4,10.1-8.5,10.7c-1.2-4.3-1.8-15.2,4.7-42.7l0.2-0.9l-0.6-0.6l-2.6-2.6c-2.9-3-6.3-4.5-9.6-4.5
		c-0.3,0-0.5,0-0.8,0c-3.1,0.2-5.8,2-7.3,4.6c-2.6,4.7-5,9.1-7.5,13.9c0.6-2.7,1.2-5.2,1.6-7.5c0.3-1.6-0.1-3-1.1-4l-2.5-2.5
		c0,0,0,0.1,0.1,0.1c0,0-0.1-0.1-0.1-0.1c0,0,0,0-0.1-0.1c0,0,0,0,0,0c-1-1-2.6-1.5-4.4-1.5c-0.2,0-0.5,0-0.8,0
		c-1.6,0.1-3.3,0.6-5,1.4l-5.6,2.6c-0.5,0.2-1.1,0.4-1.6,0.6c0.4-4.2,0.5-8.1,0.5-11.7c0-14.1-3.6-25.2-9.7-31.3l-2.6-2.6
		c0.1,0.1,0.1,0.2,0.2,0.2c-3.3-3.4-7.4-5.3-12-5.3c-0.4,0-0.9,0-1.3,0.1c-7.4,0.6-13.9,4.7-18,11.3C24.6,33.6,2.8,58.7,2.7,97.5
		c-0.1,20.3,4.8,30.9,10.5,36.3c-0.2-0.2-0.3-0.3-0.5-0.5l2.6,2.6c4.8,4.8,10.3,5.8,14.2,5.8c0.6,0,1.2,0,1.7-0.1
		c8.6-0.7,18.2-6.7,26.3-16.5c6.4-7.7,14.8-21.3,18.8-42.6c0.2-0.1,0.3-0.1,0.5-0.2c-2.1,15.7-3.5,30.5-3.7,38.4
		c0,1.8,0.6,3.3,1.8,4.4c-0.1-0.1-0.2-0.2-0.3-0.3l2.6,2.6c0.1,0.1,0.2,0.2,0.3,0.3c0.8,0.7,2.3,1.5,4.7,1.5c0.3,0,0.6,0,0.9,0
		c1.8-0.2,4-0.7,6.4-1.7l0.8-0.3l0.3-0.8c2.3-5.6,4.6-10.8,6.8-15.8c1.3-2.9,2.6-5.7,3.8-8.4c0.4,8.6,2.4,15,6.1,18.6l2.4,2.4
		l0.2,0.2c2.2,2.1,5,3.2,8.2,3.2c0.4,0,0.8,0,1.2,0c10.6-0.8,18.9-10.1,21.7-18.9C141.6,106.5,141.4,105.4,140.6,104.5z M35.2,126.8
		c-0.1,0-0.2,0-0.3,0c-1.1,0-2.1-0.4-3.2-1.1c-4-5.3-7.1-15.9-7.1-30c0-9.5,1.8-22.6,5.5-34.5c0.9,6.9,3.2,12.3,6.8,16
		c0.2,0.2,0.3,0.3,0.5,0.5c-0.1,0-0.1-0.1-0.2-0.2l2.6,2.6c3.8,3.8,9,5.9,15.5,6.1C51.2,112.1,42.3,126.2,35.2,126.8z M57.1,71.2
		c-1.9-0.6-3.6-1.6-5.1-2.8c-4-5-6-12.8-5.9-23.5c0-5.8,2.1-8.6,4-8.8c0.1,0,0.1,0,0.2,0c0.7,0,1.5,0.3,2.4,0.9
		c2.6,3.6,5,10.3,4.9,20.7C57.6,62.3,57.3,66.6,57.1,71.2z"/>
	<path d="M339.4,89c0,0-0.1-0.1-0.1-0.1l-2.6-2.6c0,0,0.1,0.1,0.1,0.1c-0.8-0.9-2.1-1.4-3.6-1.4c-0.2,0-0.4,0-0.5,0
		c-1.3,0.1-2.7,0.6-3.7,1.3l-0.5,0.3l-0.2,0.5c-4,9-7.1,10.6-9.3,10.8c-0.9-3.7-0.3-11.5,3.8-24.4c1.7-5.6,0.8-8.3-0.5-9.6l-0.1-0.1
		c0.5-3.5-0.4-6.4-2.5-8.6l-2.6-2.6c-2.8-2.9-7.3-3.9-11-3.9c-0.5,0-1,0-1.5,0c-5.8,0.5-10.9,2.5-15.1,5.5c-0.3,0.1-0.7,0.2-1,0.4
		c-2.7,1.5-9.3,2.6-11.6,2.8c-0.3,0-0.6,0-0.9,0c-2.6,0-4.6-0.9-6.2-2.1c-1.1-1.5-1.9-3-2.3-3.8l-0.7-1.4l-2.6-2.6l-1.5,0.1
		c-5.2,0.4-9.9,4.3-11.4,9.4c0,0.1-0.1,0.2-0.1,0.4c-0.1-0.1-0.2-0.2-0.3-0.3l-0.1-0.1c-0.1-0.2-0.2-0.4-0.4-0.5c0,0-0.1,0-0.1-0.1
		l-2.5-2.5c-0.7-0.7-1.9-1.5-4.2-1.5c-0.3,0-0.6,0-0.9,0c-3.5,0.3-8.2,2.1-11.9,4.7l-0.8,0.7c-0.7,0.4-1.5,0.9-2.2,1.3
		c-1.9,1.1-16,8.3-13.9,10.4h0l2.6,2.6c0.1,0.1,0.3,0.3,0.6,0.3c1.3,0.4,2.7,0.6,4,0.6c1.6,0,3.2-0.2,4.8-0.6
		c0.5-0.1,1.1-0.2,1.6-0.3c-2.4,14.8-3.9,31.5,3.4,38.6l2.6,2.6c2.3,2.3,5.4,3.4,9.2,3.4c0.5,0,1,0,1.5-0.1
		c5.7-0.4,11.2-3.1,15.7-7.6c6.7-6.7,11.2-17.2,12.6-28.9c0.3-2.7,0.5-5.5,0.5-8.3c1.1-0.1,2.3-0.4,3.5-0.7
		c-2.1,5.3-3.1,11-3.2,16.5c0,8.7,2.2,15.1,6.3,18.8c-0.1-0.1-0.3-0.3-0.4-0.4l2.6,2.6c2.6,2.6,6.1,4,10.2,4c0.5,0,1,0,1.5-0.1
		c5.3-0.4,9.3-2.6,13-7.1l2.2,2.2c2.4,2.4,5.5,3.1,8.3,3.1c0.5,0,0.9,0,1.4-0.1c10.6-1,18.9-10.3,21.7-19
		C340.4,91,340.2,89.8,339.4,89z M249.1,102.3c-1,1-2,1.7-3,2.1c-1.3-5.9-1.1-20.7,4.8-42.3c0.3,1.8,1.2,3.4,2.5,4.7c0,0,0,0-0.1,0
		l2.2,2.2C256.8,83.9,254.3,96.9,249.1,102.3z M301.6,72.9c0,0-0.1-0.1-0.1-0.1l1.6,1.6c-2.2,20.5-6.8,24.7-8.6,25.5
		c-0.5-1.7-1-4.3-1-7.9c0-12.8,4.6-28.5,10.3-30.2c-0.2,2-1.3,4.5-2.9,6l-0.5,0.5l0,0.7C300.3,70.8,300.7,72,301.6,72.9z"/>
	<path d="M363.8,104c-2.1,2.2-5,3.6-8,3.8c-0.5,0-0.9,0-1.4,0c-3.4,0-6.2-1-8.1-2.9l-2.6-2.6c0,0,0,0,0,0c-1.4-1.4-2.3-3.3-2.5-5.5
		c-0.3-2.9,0.9-6,3.2-8.4c2.1-2.2,4.8-3.5,7.6-3.7c0.5,0,0.9,0,1.4,0c3.4,0,6.1,1,7.9,3l2.5,2.5c1.6,1.6,2.5,3.8,2.8,6.6
		C366.8,99.3,365.9,101.9,363.8,104z"/>
	<path d="M343.6,133.3l-2.6-2.6c0.1,0.1,0.1,0.1,0.2,0.2c-0.2-0.2-0.4-0.4-0.6-0.5c-13.1-9.8-29.6-12.1-46.2-12.1
		c-8,0-16,0.5-23.5,1c-24.2,1.6-48.1,6.2-71.2,13.3l0.8-4.4c3.5-19.1,4.4-26,4.4-26.3l4.2-27.3c0.3-1.9-0.4-3.1-1.1-3.8l-2.5-2.5
		l-0.2-0.2c-1-0.9-2.4-1.4-4.3-1.4c-0.3,0-0.6,0-0.9,0c-3.7,0.3-8.3,2.3-12.5,5.3l-0.7,0.5l-0.1,0.8c-3.3,27.1-7.5,32.4-9.2,33.3
		c-2-6.2-1.2-21.1,6-39.2c0.6-1.5,1.3-3.7,0-5.3c-0.1-0.1-0.1-0.2-0.2-0.2l-2.5-2.5c0,0,0.1,0.1,0.1,0.1c-0.8-1-2.3-1.6-4.4-1.6
		c-0.4,0-0.8,0-1.2,0c-2.4,0.2-5.7,0.9-10,2.3l-1.1,0.3l-0.3,1c-8.6,23.6-9.3,44.6-1.8,53.4c0.3,0.3,0.6,0.6,0.9,0.9
		c0,0-0.1-0.1-0.1-0.1l2.5,2.5c2.5,2.5,5.8,3.8,9.7,3.8c0.5,0,0.9,0,1.4-0.1c2.1-0.2,4.5-1,6.8-2.7l-1,6.1l-2.8,13.7
		c-10,3.6-19.9,7.3-29.9,10.8c-15.1-11.1-34-16.4-52.7-16.4c-3.1,0-6.3,0.2-9.4,0.5c-12.7,1.2-25,4.8-36.3,10.5
		c-6.8,3.4-18.9,12.3-11.6,19.6l2.6,2.6c0.8,0.8,1.9,1.7,3.3,2.5c9.9,5.6,20.4,7.5,31,7.5c15.1,0,30.4-4,44.7-7.4
		c3.2-0.8,6.3-1.6,9.4-2.5c3.1-0.9,6.2-1.8,9.3-2.8c1.8,1.5,3.6,3.1,5.3,4.7c11.2,11.8,18.9,26.8,22.1,42.8c0.1,0.4,0.3,0.7,0.5,0.9
		c0,0,0,0,0,0l2.6,2.6c0.5,0.5,1.3,0.7,2.3,0.7c4.6,0,13.2-4.3,13.7-7.3c3.6-21.3,7.2-42.8,10.8-64.1c9.3-3,19.6-5.8,29.2-7.8
		c17.8-3.6,35.9-5.5,54-5.6c0.6,0,1.3,0,1.9,0c15.6,0,31.7,1.9,44.9,10.8c1.3,0.9,2.9,1.3,4.6,1.3
		C338.7,142.9,347,136.7,343.6,133.3z M114.5,159.8c-9.9,1.9-19.9,2.9-30,2.9c-2.5,0-5.1-0.1-7.6-0.2c-9.9-0.5-12.4-0.4-18.3-2.2
		c-0.6-0.2-1.2-0.4-1.8-0.7c-0.2-0.4-0.3-0.9-0.3-1.5c0-2.3,3.1-4.5,4.8-5.4c8.5-4.5,19.1-6.9,28.7-6.9c1.1,0,2.3,0,3.4,0.1
		c12.4,0.8,24.5,4.4,35.3,10.5C124.1,157.7,119.4,158.8,114.5,159.8z M170.2,170.9c0.2,0.2,0.3,0.4,0.5,0.6c0.1,0.1,0.1,0.2,0.2,0.2
		C170.6,171.5,170.4,171.2,170.2,170.9z M173.8,175c-3.3-4.8-7.1-9.4-11.2-13.6l-2.6-2.6c0.2,0.2,0.4,0.4,0.6,0.7
		c-0.6-0.6-1.2-1.2-1.8-1.8c6.3-2.2,12.8-4.6,19.1-6.8C176.6,158.9,175.2,167.1,173.8,175z"/>
	<path d="M378.3,11c-1.1,6.6-13.1,62.9-13.6,65.3l0,0.2l-0.1,0.2c-1,2.3-3.5,3.9-6.3,4.1c-0.2,0-0.5,0-0.7,0c-2.2,0-4.3-0.8-5.8-2.3
		l-2.5-2.5c0,0,0.1,0.1,0.1,0.1c-0.1-0.1-0.2-0.1-0.2-0.2c-0.1-0.1-0.1-0.1-0.2-0.2l-0.5-0.5l4.6-67.5l0.8-0.6
		c2.5-1.6,8.9-3.8,13.8-4.2c0.5,0,1-0.1,1.5-0.1c2.5,0,4.3,0.5,5.4,1.6l2.6,2.6C377.9,7.9,378.6,9.1,378.3,11z"/>
</g>
<g id="Bevel">
	<path fill="#C5CBD2" d="M92.8,63.6C92.9,63.7,92.9,63.7,92.8,63.6C92.9,63.7,92.9,63.7,92.8,63.6L92.8,63.6z"/>
	<path fill="#C5CBD2" d="M138,101.7c0,0-0.1-0.1-0.1-0.1l-2.5-2.5c-0.8-0.9-2.1-1.4-3.6-1.4c-0.2,0-0.4,0-0.5,0
		c-1.4,0.1-2.7,0.6-3.7,1.4l-0.5,0.3l-0.2,0.5c-3.6,8.1-6.4,10.1-8.5,10.7c-1.2-4.3-1.8-15.2,4.7-42.7l0.2-0.9l-0.6-0.6l-2.6-2.6
		c-2.9-3-6.3-4.5-9.6-4.5c-0.3,0-0.5,0-0.8,0c-3.1,0.2-5.8,2-7.3,4.6c-2.6,4.7-5,9.1-7.5,13.9c0.6-2.7,1.2-5.2,1.6-7.5
		c0.3-1.6-0.1-3-1.1-4l-2.5-2.5c0,0,0,0.1,0.1,0.1c0,0-0.1-0.1-0.1-0.1c0,0,0,0-0.1-0.1c0,0,0,0,0,0c-1-1-2.6-1.5-4.4-1.5
		c-0.2,0-0.5,0-0.8,0c-1.6,0.1-3.3,0.6-5,1.4l-5.6,2.6c-0.5,0.2-1.1,0.4-1.6,0.6C75.8,62.5,76,58.6,76,55c0-14.1-3.6-25.2-9.7-31.3
		l-2.6-2.6c0.1,0.1,0.1,0.2,0.2,0.2c-3.3-3.4-7.4-5.3-12-5.3c-0.4,0-0.9,0-1.3,0.1c-7.4,0.6-13.9,4.7-18,11.3
		C22.1,30.8,0.2,55.9,0.1,94.7C0.1,115,4.9,125.5,10.6,131c-0.2-0.2-0.3-0.3-0.5-0.5l2.6,2.6c4.8,4.8,10.3,5.8,14.2,5.8
		c0.6,0,1.2,0,1.7-0.1c8.6-0.7,18.2-6.7,26.3-16.5c6.4-7.7,14.8-21.3,18.8-42.6c0.2-0.1,0.3-0.1,0.5-0.2
		c-2.1,15.7-3.5,30.5-3.7,38.4c0,1.8,0.6,3.3,1.8,4.4c-0.1-0.1-0.2-0.2-0.3-0.3l2.6,2.6c0.1,0.1,0.2,0.2,0.3,0.3
		c0.8,0.7,2.3,1.5,4.7,1.5c0.3,0,0.6,0,0.9,0c1.8-0.2,4-0.7,6.4-1.7l0.8-0.3l0.3-0.8c2.3-5.6,4.6-10.8,6.8-15.8
		c1.3-2.9,2.6-5.7,3.8-8.4c0.4,8.6,2.4,15,6.1,18.6l2.4,2.4l0.2,0.2c2.2,2.1,5,3.2,8.2,3.2c0.4,0,0.8,0,1.2,0
		c10.6-0.8,18.9-10.1,21.7-18.9C139,103.7,138.8,102.6,138,101.7z M32.6,124c-0.1,0-0.2,0-0.3,0c-1.1,0-2.1-0.4-3.2-1.1
		c-4-5.3-7.1-15.9-7.1-30c0-9.5,1.8-22.6,5.5-34.5c0.9,6.9,3.2,12.3,6.8,16c0.2,0.2,0.3,0.3,0.5,0.5c-0.1,0-0.1-0.1-0.2-0.2l2.6,2.6
		c3.8,3.8,9,5.9,15.5,6.1C48.6,109.3,39.7,123.4,32.6,124z M54.5,68.4c-1.9-0.6-3.6-1.6-5.1-2.8c-4-5-6-12.8-5.9-23.5
		c0-5.8,2.1-8.6,4-8.8c0.1,0,0.1,0,0.2,0c0.7,0,1.5,0.3,2.4,0.9c2.6,3.6,5,10.3,4.9,20.7C55,59.5,54.8,63.8,54.5,68.4z"/>
	<path fill="#C5CBD2" d="M336.9,86.2c0,0-0.1-0.1-0.1-0.1l-2.6-2.6c0,0,0.1,0.1,0.1,0.1c-0.8-0.9-2.1-1.4-3.6-1.4
		c-0.2,0-0.4,0-0.5,0c-1.3,0.1-2.7,0.6-3.7,1.3l-0.5,0.3l-0.2,0.5c-4,9-7.1,10.6-9.3,10.8c-0.9-3.7-0.3-11.5,3.8-24.4
		c1.7-5.6,0.8-8.3-0.5-9.6l-0.1-0.1c0.5-3.5-0.4-6.4-2.5-8.6l-2.6-2.6c-2.8-2.9-7.3-3.9-11-3.9c-0.5,0-1,0-1.5,0
		c-5.8,0.5-10.9,2.5-15.1,5.5c-0.3,0.1-0.7,0.2-1,0.4c-2.7,1.5-9.3,2.6-11.6,2.8c-0.3,0-0.6,0-0.9,0c-2.6,0-4.6-0.9-6.2-2.1
		c-1.1-1.5-1.9-3-2.3-3.8l-0.7-1.4l-2.6-2.6l-1.5,0.1c-5.2,0.4-9.9,4.3-11.4,9.4c0,0.1-0.1,0.2-0.1,0.4c-0.1-0.1-0.2-0.2-0.3-0.3
		l-0.1-0.1c-0.1-0.2-0.2-0.4-0.4-0.5c0,0-0.1,0-0.1-0.1l-2.5-2.5c-0.7-0.7-1.9-1.5-4.2-1.5c-0.3,0-0.6,0-0.9,0
		c-3.5,0.3-8.2,2.1-11.9,4.7l-0.8,0.7c-0.7,0.4-1.5,0.9-2.2,1.3c-1.9,1.1-16,8.3-13.9,10.4h0l2.6,2.6c0.1,0.1,0.3,0.3,0.6,0.3
		c1.3,0.4,2.7,0.6,4,0.6c1.6,0,3.2-0.2,4.8-0.6c0.5-0.1,1.1-0.2,1.6-0.3c-2.4,14.8-3.9,31.5,3.4,38.6l2.6,2.6
		c2.3,2.3,5.4,3.4,9.2,3.4c0.5,0,1,0,1.5-0.1c5.7-0.4,11.2-3.1,15.7-7.6c6.7-6.7,11.2-17.2,12.6-28.9c0.3-2.7,0.5-5.5,0.5-8.3
		c1.1-0.1,2.3-0.4,3.5-0.7c-2.1,5.3-3.1,11-3.2,16.5c0,8.7,2.2,15.1,6.3,18.8c-0.1-0.1-0.3-0.3-0.4-0.4l2.6,2.6
		c2.6,2.6,6.1,4,10.2,4c0.5,0,1,0,1.5-0.1c5.3-0.4,9.3-2.6,13-7.1l2.2,2.2c2.4,2.4,5.5,3.1,8.3,3.1c0.5,0,0.9,0,1.4-0.1
		c10.6-1,18.9-10.3,21.7-19C337.9,88.2,337.6,87,336.9,86.2z M246.5,99.5c-1,1-2,1.7-3,2.1c-1.3-5.9-1.1-20.7,4.8-42.3
		c0.3,1.8,1.2,3.4,2.5,4.7c0,0,0,0-0.1,0l2.2,2.2C254.2,81.1,251.7,94.1,246.5,99.5z M299,70.1c0,0-0.1-0.1-0.1-0.1l1.6,1.6
		c-2.2,20.5-6.8,24.7-8.6,25.5c-0.5-1.7-1-4.3-1-7.9c0-12.8,4.6-28.5,10.3-30.2c-0.2,2-1.3,4.5-2.9,6l-0.5,0.5l0,0.7
		C297.7,68,298.1,69.2,299,70.1z"/>
	<path fill="#C5CBD2" d="M361.3,101.2c-2.1,2.2-5,3.6-8,3.8c-0.5,0-0.9,0-1.4,0c-3.4,0-6.2-1-8.1-2.9l-2.6-2.6c0,0,0,0,0,0
		c-1.4-1.4-2.3-3.3-2.5-5.5c-0.3-2.9,0.9-6,3.2-8.4c2.1-2.2,4.8-3.5,7.6-3.7c0.5,0,0.9,0,1.4,0c3.4,0,6.1,1,7.9,3l2.5,2.5
		c1.6,1.6,2.5,3.8,2.8,6.6C364.3,96.5,363.3,99.1,361.3,101.2z"/>
	<path fill="#C5CBD2" d="M341,130.5l-2.6-2.6c0.1,0.1,0.1,0.1,0.2,0.2c-0.2-0.2-0.4-0.4-0.6-0.5c-13.1-9.8-29.6-12.1-46.2-12.1
		c-8,0-16,0.5-23.5,1c-24.2,1.6-48.1,6.2-71.2,13.3l0.8-4.4c3.5-19.1,4.4-26,4.4-26.3l4.2-27.3c0.3-1.9-0.4-3.1-1.1-3.8l-2.5-2.5
		l-0.2-0.2c-1-0.9-2.4-1.4-4.3-1.4c-0.3,0-0.6,0-0.9,0c-3.7,0.3-8.3,2.3-12.5,5.3l-0.7,0.5l-0.1,0.8c-3.3,27.1-7.5,32.4-9.2,33.3
		c-2-6.2-1.2-21.1,6-39.2c0.6-1.5,1.3-3.7,0-5.3c-0.1-0.1-0.1-0.2-0.2-0.2l-2.5-2.5c0,0,0.1,0.1,0.1,0.1c-0.8-1-2.3-1.6-4.4-1.6
		c-0.4,0-0.8,0-1.2,0c-2.4,0.2-5.7,0.9-10,2.3l-1.1,0.3l-0.3,1c-8.6,23.6-9.3,44.6-1.8,53.4c0.3,0.3,0.6,0.6,0.9,0.9
		c0,0-0.1-0.1-0.1-0.1l2.5,2.5c2.5,2.5,5.8,3.8,9.7,3.8c0.5,0,0.9,0,1.4-0.1c2.1-0.2,4.5-1,6.8-2.7l-1,6.1l-2.8,13.7
		c-10,3.6-19.9,7.3-29.9,10.8c-15.1-11.1-34-16.4-52.7-16.4c-3.1,0-6.3,0.2-9.4,0.5c-12.7,1.2-25,4.8-36.3,10.5
		c-6.8,3.4-18.9,12.3-11.6,19.6l2.6,2.6c0.8,0.8,1.9,1.7,3.3,2.5c9.9,5.6,20.4,7.5,31,7.5c15.1,0,30.4-4,44.7-7.4
		c3.2-0.8,6.3-1.6,9.4-2.5c3.1-0.9,6.2-1.8,9.3-2.8c1.8,1.5,3.6,3.1,5.3,4.7c11.2,11.8,18.9,26.8,22.1,42.8c0.1,0.4,0.3,0.7,0.5,0.9
		c0,0,0,0,0,0l2.6,2.6c0.5,0.5,1.3,0.7,2.3,0.7c4.6,0,13.2-4.3,13.7-7.3c3.6-21.3,7.2-42.8,10.8-64.1c9.3-3,19.6-5.8,29.2-7.8
		c17.8-3.6,35.9-5.5,54-5.6c0.6,0,1.3,0,1.9,0c15.6,0,31.7,1.9,44.9,10.8c1.3,0.9,2.9,1.3,4.6,1.3
		C336.1,140.1,344.4,133.9,341,130.5z M112,157c-9.9,1.9-19.9,2.9-30,2.9c-2.5,0-5.1-0.1-7.6-0.2c-9.9-0.5-12.4-0.4-18.3-2.2
		c-0.6-0.2-1.2-0.4-1.8-0.7c-0.2-0.4-0.3-0.9-0.3-1.5c0-2.3,3.1-4.5,4.8-5.4c8.5-4.5,19.1-6.9,28.7-6.9c1.1,0,2.3,0,3.4,0.1
		c12.4,0.8,24.5,4.4,35.3,10.5C121.6,154.9,116.8,156,112,157z M167.6,168.1c0.2,0.2,0.3,0.4,0.5,0.6c0.1,0.1,0.1,0.2,0.2,0.2
		C168,168.7,167.8,168.4,167.6,168.1z M171.3,172.2c-3.3-4.8-7.1-9.4-11.2-13.6l-2.6-2.6c0.2,0.2,0.4,0.4,0.6,0.7
		c-0.6-0.6-1.2-1.2-1.8-1.8c6.3-2.2,12.8-4.6,19.1-6.8C174,156.1,172.6,164.3,171.3,172.2z"/>
	<path fill="#C5CBD2" d="M375.7,8.2c-1.1,6.6-13.1,62.9-13.6,65.3l0,0.2l-0.1,0.2c-1,2.3-3.5,3.9-6.3,4.1c-0.2,0-0.5,0-0.7,0
		c-2.2,0-4.3-0.8-5.8-2.3l-2.5-2.5c0,0,0.1,0.1,0.1,0.1c-0.1-0.1-0.2-0.1-0.2-0.2c-0.1-0.1-0.1-0.1-0.2-0.2l-0.5-0.5L350.5,5
		l0.8-0.6c2.5-1.6,8.9-3.8,13.8-4.2c0.5,0,1-0.1,1.5-0.1c2.5,0,4.3,0.5,5.4,1.6l2.6,2.6C375.3,5.1,376.1,6.3,375.7,8.2z"/>
</g>
<g id="Top">
	<g>
		<path fill="#FFFFFF" d="M135.3,98.9c0.8,0.9,1,2,0.6,3.2c-2.8,8.8-11.2,18-21.7,18.8c-0.4,0-0.8,0-1.2,0c-3.2,0-5.9-1.1-8.2-3.2
			c-4.8-4.6-6.9-14.1-6-27c-4.3,9-8.8,19-13.4,30.1l-0.3,0.8l-0.9,0.4c-2.4,1-4.6,1.5-6.4,1.7c-0.3,0-0.6,0-0.9,0
			c-2.4,0-3.8-0.8-4.7-1.5c-1.2-1-1.8-2.6-1.8-4.4c0.2-8.6,1.8-25.2,4.2-42.2c-1.3,0.5-2.5,1-3.7,1.4c-4,21.3-12.4,34.9-18.8,42.6
			c-8.1,9.8-17.7,15.8-26.3,16.5c-0.5,0-1.1,0.1-1.7,0.1c-8.5,0-24.3-4.9-24.2-41.6c0.1-38.8,21.9-63.9,32.4-67.3
			c4.1-6.6,10.6-10.7,18-11.3c0.5,0,0.9-0.1,1.3-0.1c12.8,0,21.6,14.7,21.5,36.4c0,4.7-0.3,9.7-0.9,15.3c1.5-0.4,3-0.9,4.5-1.5
			l5.6-2.6c1.7-0.8,3.4-1.3,5-1.4c0.3,0,0.5,0,0.8,0c1.8,0,3.4,0.5,4.4,1.5c1.1,1,1.5,2.5,1.2,4.1c-0.8,4.3-2,9.5-3.4,15
			c-0.7,2.8-1.4,5.8-2.1,8.7c5-11.1,9-18.8,13.9-27.5c1.5-2.6,4.2-4.3,7.3-4.6c0.3,0,0.5,0,0.8,0c3.3,0,6.7,1.6,9.6,4.5l0.6,0.6
			l-0.2,0.9c-8.9,37.3-4.5,44.2-3.6,45.1c0.1,0.1,0.3,0.3,0.5,0.3c2-0.2,5.2-1.4,9.4-10.8l0.2-0.5l0.5-0.3c1.1-0.8,2.4-1.2,3.7-1.4
			c0.2,0,0.4,0,0.5,0C133.2,97.5,134.5,98,135.3,98.9z M32.5,123.7c7.3-0.6,16.6-15.5,20.5-43.1c-0.5,0-1.1,0-1.6,0
			c-7.3,0-13.1-2.2-17.2-6.5c-4.9-5.1-7.3-13.3-7.3-24.3c0-0.2,0-0.3,0-0.5c-5.1,13.5-7.5,29.5-7.6,40.7
			c-0.1,20.4,6.5,33.7,12.9,33.7C32.3,123.8,32.4,123.8,32.5,123.7 M54.4,68.2c0.3-4.6,0.5-8.9,0.5-13.5c0-17.3-6.3-24.2-9.9-24.2
			c-0.1,0-0.1,0-0.2,0c-1.9,0.2-4,3-4,8.8C40.7,55.5,45.3,65.2,54.4,68.2"/>
	</g>
	<g>
		<path fill="#FFFFFF" d="M334.1,83.4c0.8,0.8,1,2,0.6,3.2c-2.8,8.7-11.1,18-21.7,19c-0.5,0-0.9,0.1-1.4,0.1
			c-3.6,0-7.6-1.2-10.2-5.7c-3.8,4.8-7.9,7-13.3,7.5c-0.5,0-1,0.1-1.5,0.1c-10.1,0-16.1-8.3-16-22.5c0-6.9,1.7-14.1,4.8-20.4
			c-2.8,0.9-5.6,1.6-7.8,1.9c0.1,14.9-4.9,29-13.1,37.2c-4.5,4.5-9.9,7.1-15.7,7.6c-0.5,0-1,0.1-1.6,0.1c-3.8,0-6.8-1.1-9.2-3.4
			c-7.9-7.6-5.6-26.3-2.9-41.9c-3.2,0.7-6.4,1.6-9.6,1.6c-1.4,0-2.7-0.2-4-0.6c-4.6-1.5,11.3-9.5,13.3-10.8c0.7-0.4,1.5-0.9,2.2-1.3
			l0.8-0.7c3.8-2.6,8.5-4.4,11.9-4.7c0.3,0,0.6,0,0.9,0c2.3,0,3.5,0.8,4.2,1.5c0.2,0.2,0.3,0.3,0.4,0.5c1,1,1.1,2,0.6,3.1
			c0,0.4-0.1,0.7-0.2,1.1c-7.8,28.2-6.1,45-3.7,46c1.4-0.1,2.9-0.9,4.2-2.3c5.2-5.5,7.7-18.8,6.4-33.9c-4-2.3-5.7-6.6-4.3-11.3
			c1.6-5.1,6.3-9,11.4-9.4l1.5-0.1l0.7,1.4c1,2.1,4.1,8.5,11.1,8.5c0.3,0,0.6,0,0.9,0c2.3-0.2,8.8-1.3,11.5-2.8
			c0.4-0.2,0.7-0.3,1.1-0.4c4.3-3,9.3-5,15.2-5.5c0.5,0,1-0.1,1.5-0.1c3.7,0,8.1,1,11,3.9c2.2,2.2,3.1,5.2,2.5,8.6
			c1.4,1.3,2.5,4,0.7,9.7c-5.1,16.1-4.8,24.2-2.9,26.5c0.4,0.4,0.8,0.6,1.4,0.6c2.2-0.2,5.4-1.5,9.6-10.8l0.2-0.5l0.5-0.3
			c1.1-0.8,2.4-1.2,3.7-1.3c0.2,0,0.4,0,0.5,0C332,82,333.3,82.5,334.1,83.4z M300.5,70.8c-2.1-0.8-2.9-2.3-2.8-4.8l0-0.7l0.5-0.5
			c2.2-2.2,3.5-6.3,2.7-8.1c-0.2-0.4-0.5-0.7-1.3-0.7c-0.1,0-0.2,0-0.3,0c-6.1,0.5-11,17-11.1,30.4c0,7.5,1.8,10.7,2.8,10.7
			C291.7,97.1,297.9,95.9,300.5,70.8"/>
	</g>
	<g>
		<path fill="#FFFFFF" d="M350.7,81.7c6.2,0,10.1,3.4,10.5,9.4c0.3,2.6-0.7,5.1-2.7,7.3c-2.1,2.2-5,3.6-8,3.8
			c-0.5,0-0.9,0.1-1.4,0.1c-6,0-10.1-3.2-10.6-8.4c-0.3-2.9,0.9-6,3.2-8.4c2.1-2.2,4.8-3.5,7.6-3.7
			C349.8,81.7,350.3,81.7,350.7,81.7z"/>
	</g>
	<g>
		<path fill="#FFFFFF" d="M337.8,127.3c4.4,3.3-4.2,10-11.3,10c-1.7,0-3.3-0.4-4.6-1.3c-13.1-8.9-29.2-10.8-44.9-10.8
			c-0.6,0-1.2,0-1.9,0c-18.1,0.2-36.3,2-54,5.6c-9.6,2-19.9,4.9-29.2,7.8c-3.7,21.3-7.2,42.8-10.8,64.1c-0.5,3-9.1,7.3-13.7,7.3
			c-1.5,0-2.6-0.5-2.8-1.6c-3.9-19.5-14.5-37.6-30-50.1c-6.2,1.9-12.4,3.7-18.7,5.2c-14.3,3.5-29.6,7.4-44.7,7.4
			c-10.7,0-21.2-2-31-7.5c-13.5-7.6,0.7-18.4,8.2-22.1c11.4-5.6,23.7-9.2,36.3-10.5c3.1-0.3,6.3-0.5,9.4-0.5
			c18.7,0,37.6,5.3,52.7,16.4c10-3.5,19.9-7.2,29.9-10.8l2.8-13.7l2.1-12.1c-3.4,4.1-7.3,5.9-10.4,6.1c-0.5,0-0.9,0.1-1.4,0.1
			c-4.2,0-7.8-1.6-10.4-4.6c-7.6-8.8-6.9-29.8,1.8-53.4l0.4-1l1.1-0.3c4.3-1.3,7.6-2,10-2.2c0.4,0,0.8,0,1.2,0
			c2.1,0,3.6,0.5,4.4,1.6c1.3,1.6,0.6,3.8,0,5.3c-8.3,20.9-8.2,37.5-4.9,41.4c0.2,0.2,0.5,0.6,0.9,0.6c0.6,0,5.8-1.4,9.8-33.6
			l0.1-0.8l0.7-0.5c4.1-3,8.8-5,12.5-5.3c0.3,0,0.6,0,0.9,0c1.8,0,3.3,0.5,4.3,1.4c0.7,0.7,1.5,1.9,1.2,3.9l-4.2,27.3
			c0,0.4-0.9,7.2-4.4,26.4l-1.5,8.1l0.8-0.3c24-7.5,48.7-12.4,73.8-14.1c7.6-0.5,15.6-1,23.5-1C308.2,115.2,324.8,117.5,337.8,127.3
			z M111.8,156.8c5.2-1,10.4-2.3,15.5-3.7c-0.8-0.5-1.7-1.1-2.5-1.5c-11.2-6.5-23.7-10.5-36.6-11.3c-1.1-0.1-2.2-0.1-3.4-0.1
			c-9.6,0-20.3,2.4-28.7,6.9c-1.8,0.9-4.8,3.1-4.8,5.4c-0.1,2.7,2.6,4.2,4.7,4.8c5.8,1.8,8.3,1.7,18.3,2.2c2.5,0.1,5.1,0.2,7.6,0.2
			C91.9,159.7,102,158.7,111.8,156.8 M170.9,173.1c1.6-9.5,3.4-19.5,5-29c-7.4,2.6-15.1,5.5-22.5,8.1
			C160.1,158.2,166.3,165.5,170.9,173.1"/>
	</g>
	<g>
		<path fill="#FFFFFF" d="M366.5,0c2.5,0,4.3,0.5,5.4,1.6c0.7,0.7,1.4,1.9,1,3.8c-1.1,6.6-13.1,62.9-13.7,65.3l0,0.2l-0.1,0.2
			c-1,2.3-3.5,3.9-6.3,4.1c-0.2,0-0.5,0-0.7,0c-2.3,0-4.4-0.9-5.9-2.5l-0.5-0.5l4.6-67.5l0.8-0.6c2.4-1.6,8.9-3.8,13.8-4.2
			C365.5,0,366,0,366.5,0z"/>
	</g>
</g>
<g id="Shadow_1_" opacity="0.16">
	<g>
		<path stroke="#000000" stroke-width="3" stroke-miterlimit="10" d="M345.1,166c0,0,0.5,0.5,0.5,0.5c0.5,0.5,1.4,1.5,2.2,1.1
			c0.4-0.2,0.9-2,1.1-2.5c0.4-0.9,0.8-1.9,1.2-2.8c0.8-1.9,1.6-3.8,2.4-5.8c0.3-0.9,0.7-1.8,1-2.7c0.4-0.9,1.1-2,0.4-2.8
			c-0.1-0.1,0.3,0.3,0,0c-0.3-0.3-0.6-0.6-0.9-1c0.1,0.1,0.1,0.1,0.2,0.2c-0.9-0.9-2.1-1.9-3.3-2.2c-0.8,3.1-1.6,6.3-2.4,9.4
			c-0.4,1.4-0.8,2.8-1.2,4.2C345.8,162.6,344.4,165.5,345.1,166z"/>
		<path stroke="#000000" stroke-width="3" stroke-miterlimit="10" d="M342.2,169.5c-1.4,1.5-2.9,3-4.5,4.3c-1.5,1.2-2.9,2.2-4.7,1.1
			c-0.3-0.2-0.8-0.6-1-0.9c-0.5-0.8,0-0.8,0.5-1.5c0.6-0.7,1.1-1.6,1.5-2.4c0.3-0.7,1-1.8,1-2.5c-2.3,2.7-4,6.1-5.2,9.4
			c-0.7,2-1.3,4-2,6.1c-0.4,1.2-0.4,2.8-1.6,3.3c-1,0.4-4.3,2.3-3.9,0c0.3-1.9,1.3-3.9,2-5.7c0.7-1.9,1.4-3.9,2.1-5.8
			c-0.9,0.8-2.5,2.6-3.9,2.2c-0.7-0.2-2.1-1.5-2.1-2.2c-0.8,1-1.7,2.3-2.8,2.9c-0.9,0.5-1.6,0.1-2.3-0.6c-0.6-0.6-1.2-1.1-1.1-2
			c0.2-1.4,0.8-2.7,1.2-4c0.2-0.7,0.5-1.4,0.7-2c0.2-0.6,0.4-1.7,0.8-2.2c0.3-0.4,0.1-0.3,0.8-0.2c0.7,0.1,1.5,0.3,2.1,0.7
			c0.5,0.3,1.1,0.7,1,1.2c0,0.5-0.5,1.2-0.7,1.6c-0.3,0.8,0.4-0.4,0.1,0.4c1.3-1.6,1.5-1.6,2.3-3.5c0.5-1.4,0.5-1.8,2.1-0.8
			c0.6,0.4,1.6,1,1.6,1.7c0,0.7-0.6,1.8-0.8,2.4c-0.3,0.9-0.7,1.9-0.9,2.9c1-0.9,2.1-1.7,2.9-2.7c1-1.2,1.3-3.1,1.8-4.6
			c0.4-1.4,0.5-1.7,1.9-0.8c0.5,0.4,1.2,0.9,1.6,1.5c0.6-0.8,1.8-2.4,2.9-2.6c0.9-0.1,1.6,0.8,2.2,1.3c0.5,0.5,0.9,0.8,1,1.5
			c0.1,1.4,0.2,1.6-0.4,2.8c1.1-0.9,1.3-0.5,2.2-1.6C341.3,168.6,341.8,169.1,342.2,169.5z"/>
		<path stroke="#000000" stroke-width="3" stroke-miterlimit="10" d="M346.3,169.8c-0.4-0.4-1-0.7-1.5-0.9c-0.9-0.4-1.2-0.4-1.7,0.4
			c-0.3,0.6-1.1,1.7-1,2.4c0.1,0.4,0.4,0.7,0.7,1c0.8,0.6,2.3,1.4,3.1,0.6c0.4-0.4,1.2-1.8,1.2-2.4
			C347.1,170.4,346.6,170.2,346.3,169.8z"/>
		<path stroke="#000000" stroke-width="3" stroke-miterlimit="10" d="M311.9,165.2c-0.7,2.4-2.4,1.3-4.1,2.1c-1,0.4-1.3,2.7-1.7,3.8
			c-0.6,1.7-1.1,3.4-1.4,5.1c0.8-0.6,1.5-1.4,2.3-2.1c0.3-0.3,0.6-0.8,0.9-1c0.6-0.3,0.1-0.4,0.8,0c0.2,0.2,1,0.8,1,1
			c0.1,0.4-1.3,1.6-1.6,1.9c-1.1,1.1-3.2,3.8-4.8,3.9c-1.3,0.1-2.2-1.3-3-2.1c-1,1-2.6,3-4.1,3.2c-1,0.1-1.8-0.8-2.4-1.5
			c0,0-0.1-0.1-0.1-0.1c-0.7-0.6-0.1-1.6,0.1-2.3c0.3-1.1,0.7-2.3,1-3.4c0.3-1,0.7-2,1.1-3c0.4-1,0.7-0.9,1.7-0.3
			c0.7,0.4,1.8,1.2,1.8,2c0,0.7-0.5,1.6-0.8,2.3c-0.3,0.8-0.3,0.8-0.6,1.6c1.2-1.2,2.4-1.3,2.9-2.9c0.6-1.8,1.2-3.6,1.8-5.4
			c-0.8,0.1-1,0.3-1.6-0.3c-0.7,0.9-2.2,0.1-2.9-0.6c-1-0.9-0.4-1.9,0.2-3c0.3-0.6,0.5-1,1.1-1c0.6,0,1.4,0.5,1.9,0.9
			c0.6,0.5,1.3,1.1,0.5,1.9c0.4-0.1,1.2-0.1,1.5-0.3c0.5-0.4,0.8-2,1.1-2.6c0.4-0.9,0.7-1.8,1.4-2.5c0.8-0.7,1.8-1.2,2.8-1.7
			c0.7-0.4,2-0.8,2.1,0.4c0,0.4-0.8,1.8-1,2.2c-0.5,1.1-0.9,2.2-1.3,3.3c0.7-0.1,1.6-0.5,2.3-0.4
			C311.1,164.3,312.1,164.7,311.9,165.2z"/>
		<path stroke="#000000" stroke-width="3" stroke-miterlimit="10" d="M288,176.4c-0.1-0.1-0.2-0.3-0.4-0.4c-0.6-0.4-0.6,0-1.1,0.5
			c-0.9,0.9-1.9,1.9-3,2.7c0.2-1.1,0.7-2.2,1.1-3.3c0.2-0.7,0.9-1.8,0.5-2.5c-0.3-0.5-1.1-1-1.5-1.3c-1.1-0.6-1.6-0.7-2.6,0.1
			c1.5-1.9,2.9-3.9,4.2-5.9c1-1.7,2.7-4,2.8-6c0.1-1.1-1.3-2.2-2.2-2.7c-1.1-0.7-1.8-0.3-2.7,0.6c-0.7,0.7-1.3,1.5-1.8,2.4
			c-2.6,3.9-4.5,8.3-6.1,12.8c-0.5,1.3-0.9,2.5-1.3,3.8c-0.3,1.1-1,1.7-1.8,2.5c-1.3,1.3-3.3,3-5.3,3c0.1-1.5,0.6-3.3,1.4-4.6
			c-0.2,0.4,0.2,1,0.7,1.2c0.8,0.3,2.2-0.7,2.8-1.2c0.9-0.7,1.3-1.2,0.7-2.2c-0.4-0.6-1-1.2-1.6-1.6c-1.1-0.9-1.9-0.8-3.2-0.2
			c-1.2,0.6-2.2,1.4-3,2.4c-0.8,1-1.5,2.1-1.9,3.3c-0.5,1.3-1.4,1.9-2.3,2.9c0-1.2,1-2.8,1.4-4c0.3-1,0.2-1.3-0.6-2
			c-0.6-0.5-1.5-1.4-2.4-1.3c-1.1,0.2-2.2,1.9-2.8,2.7c-0.8-0.8-1.7-1.3-2.8-1.8c-0.6-0.3-0.5-0.3-0.8,0.1c-0.2,0.2-0.3,0.9-0.4,1.2
			c-0.3,0.9-0.6,1.8-0.9,2.7c-0.7,2.4-4.3,5.7-7,5.7c0-0.9,0.4-0.9,1.1-1.4c0.6-0.3,1.1-0.7,1.6-1.1c1-0.7,2.3-1.6,3-2.7
			c1-1.5-0.7-3.6-2.2-4.1c-2-0.6-4.6,1.6-5.8,3.1c-0.8,1-1.4,2.1-1.8,3.4c-0.3,1.1-1.4,2-2.3,2.7c0.4-1.1,1.8-3.6,1.3-4.7
			c-0.6-1.2-2.4-1.4-3.3-2.2c-0.3-0.3-0.4-0.5-0.7-0.9c-0.3-0.4-0.7-0.7-1.1-0.9c-0.7-0.3-0.9,0.1-1.6,0.4c-0.9,0.5-1.9,0.9-2.8,1.3
			c2.8-4.9,6-9.5,8.7-14.4c0.8-1.5,3.8-1.9,5.3-2.3c3.1-0.9,6.3-1.6,9.5-1.4c-0.2-1.1-0.6-2.6-1.3-3.6c-0.6-0.9-1.1-0.8-2.1-0.6
			c-2.5,0.4-4.9,0.9-7.3,1.5c-5.4,1.5-10.6,3.5-15.5,6c-4.5,2.3-8.7,5.1-12.3,8.7c-0.8,0.8-1.6,1.6-2.1,2.6
			c-0.9,1.5-0.8,2.3,0.2,3.7c0.6,0.7,1.3,1.6,2.1,2.2c1.1,0.8,2.7,0.2,3.9-0.2c0.4-0.1,1.4-0.3,1.6-0.7c0.1-0.2,0.1-0.6,0.2-0.8
			c0.2-0.8,0.7-2,0.6-2.8c0-0.4,0.1-0.3-0.3-0.7c-0.4-0.4-0.3-0.3-0.8-0.2c-1.3,0.3-1.7,0.8-2.9,1.3c1.9-2.6,3.7-3.9,6.3-5.8
			c3-2.1,6.3-4,9.7-5.5c-3.3,4.6-6.6,9.3-9.4,14.2c-0.5,0.8-0.6,1-1.5,1.2c-0.6,0.2-1.3,0.3-1.9,0.5c-1.3,0.3-1.8,0.5-2.4,1.7
			c-0.3,0.6-0.3,1.5,0.5,1.8c0.6,0.2,2.1-0.4,2.7-0.5c-1.7,3.2-3.3,6.5-4.8,9.8c-0.1,0.2-0.7,1.2-0.6,1.4c0,0.1,0.2,0.2,0.3,0.3
			c0.4,0.6,0.5,0.4,1,0.3c1.1-0.3,3.5-0.8,4.2-1.7c0.4-0.5,0.6-1.5,0.9-2.1c0.4-0.9,0.8-1.7,1.3-2.6c0.8-1.6,1.6-3.2,2.5-4.7
			c0.5-0.8,0.8-1.9,1.7-2.2c0.7-0.3,1.6-0.4,2.3-0.6c0.6-0.2,1.3-0.3,1.9-0.6c0.7-0.4,0.6-0.7,1.4-0.2c-0.7,0.8-1.3,1.7-1.9,2.6
			c-0.2,0.3-0.7,0.7-0.8,1.1c-0.1,0.4-0.1,0.2,0.2,0.6c0.6,0.8,0.8,0.6,1.5,0c0.8-0.8,1.5-1.1,2.3-2c-0.3,1.1-0.6,1.6-0.8,2.7
			c-0.1,0.9,0.4,1.3,1,1.9c2.2,1.9,4.1-0.8,5.7-2.2c0.9,1.1,2.1,2.4,3.6,2.1c1.2-0.2,2.4-0.7,3.4-1.4c0.5-0.3,1-0.6,1.5-1
			c0.3-0.2,0.8-0.9,1.2-1c0.9-0.3,2.4,2.9,3.8,1.8c0.3-0.3,0.6-1.3,0.7-1.7c0.2-0.5,0.5-1.1,0.8-1.6c0.6-1.1,1.2-2.1,1.9-3.2
			c-0.2,1.1-1.2,2.5-0.9,3.6c0.1,0.5,0.7,1,1.1,1.3c2.1,1.8,4.2-0.6,5.7-2.2c0.9,1.3,2.2,2.5,3.9,2.1c2.5-0.5,4.6-2,6.4-3.7
			c0,1.1,2.9,2.7,3.5,2c0.4-0.4,0.5-1.6,0.8-2.1c0.3-0.7,0.6-1.4,1-2.1c0.6-1.2,1.3-2.3,2.2-3.4c-0.4,1.3-1.7,3.9-0.8,5.1
			c0.7,0.9,1.9,1.7,3.1,1.4c1.6-0.4,3.1-2.2,4.2-3.3c0.4-0.4,1.6-1.3,1.8-1.9C288.7,176.9,288.4,176.8,288,176.4z M283.3,164
			c0.4-0.9,0.9-1.8,1.4-2.7c-0.4,1-0.9,1.9-1.4,2.8C283.3,164.1,283.3,164.1,283.3,164C283.7,163.1,283.3,164.1,283.3,164z
			 M268.2,177.9c0.1-0.2,0.2-0.4,0.3-0.6 M245.3,181.1c0.1-0.2,0.2-0.4,0.3-0.5c0.3-0.4-0.1,0.2,0,0"/>
	</g>
</g>
<g id="Bevel_1_">
	<g>
		<path fill="#AD3C42" d="M353.8,151.1c-0.3-0.3-0.6-0.6-0.9-1c0.1,0.1,0.1,0.1,0.2,0.2c-0.9-0.9-2.1-1.9-3.3-2.2
			c-0.8,3.1-1.6,6.3-2.4,9.4c-0.4,1.4-0.8,2.8-1.2,4.2c-0.3,0.8-1.6,3.7-1,4.2c-0.1-0.1-0.1-0.1-0.2-0.2l0,0l0,0
			c0.5,0.5,2,2.2,2.8,1.8c0.4-0.2,0.9-2,1.1-2.5c0.4-0.9,0.8-1.9,1.2-2.8c0.8-1.9,1.6-3.8,2.4-5.8c0.3-0.9,0.7-1.8,1-2.7
			C353.8,153,354.6,151.9,353.8,151.1C353.8,151,354.1,151.4,353.8,151.1z M345.2,166.1c-0.1-0.1,0.4,0.3,0.4,0.3
			C345.5,166.3,345.4,166.2,345.2,166.1z"/>
		<path fill="#AD3C42" d="M342.2,169.5c-1.4,1.5-2.9,3-4.5,4.3c-1.5,1.2-2.9,2.2-4.7,1.1c-0.3-0.2-0.8-0.6-1-0.9
			c-0.5-0.8,0-0.8,0.5-1.5c0.6-0.7,1.1-1.6,1.5-2.4c0.3-0.7,1-1.8,1-2.5c-2.3,2.7-4,6.1-5.2,9.4c-0.7,2-1.3,4-2,6.1
			c-0.4,1.2-0.4,2.8-1.6,3.3c-1,0.4-4.3,2.3-3.9,0c0.3-1.9,1.3-3.9,2-5.7c0.7-1.9,1.4-3.9,2.1-5.8c-0.9,0.8-2.5,2.6-3.9,2.2
			c-0.7-0.2-2.1-1.5-2.1-2.2c-0.8,1-1.7,2.3-2.8,2.9c-0.9,0.5-1.6,0.1-2.3-0.6c-0.6-0.6-1.2-1.1-1.1-2c0.2-1.4,0.8-2.7,1.2-4
			c0.2-0.7,0.5-1.4,0.7-2c0.2-0.6,0.4-1.7,0.8-2.2c0.3-0.4,0.1-0.3,0.8-0.2c0.7,0.1,1.5,0.3,2.1,0.7c0.5,0.3,1.1,0.7,1,1.2
			c0,0.5-0.5,1.2-0.7,1.6c-0.3,0.8-0.7,1.6-1,2.4c1.3-1.6,2.5-3.5,3.3-5.5c0.5-1.4,0.5-1.8,2.1-0.8c0.6,0.4,1.6,1,1.6,1.7
			c0,0.7-0.6,1.8-0.8,2.4c-0.3,0.9-0.7,1.9-0.9,2.9c1-0.9,2.1-1.7,2.9-2.7c1-1.2,1.3-3.1,1.8-4.6c0.4-1.4,0.5-1.7,1.9-0.8
			c0.5,0.4,1.2,0.9,1.6,1.5c0.6-0.8,1.8-2.4,2.9-2.6c0.9-0.1,1.6,0.8,2.2,1.3c0.5,0.5,0.9,0.8,1,1.5c0.1,1.4-0.6,3-1.3,4.2
			c1.1-0.9,2.1-2,3.1-3C341.3,168.6,341.8,169.1,342.2,169.5z"/>
		<path fill="#AD3C42" d="M346.3,169.8c-0.4-0.4-1-0.7-1.5-0.9c-0.9-0.4-1.2-0.4-1.7,0.4c-0.3,0.6-1.1,1.7-1,2.4
			c0.1,0.4,0.4,0.7,0.7,1c0.8,0.6,2.3,1.4,3.1,0.6c0.4-0.4,1.2-1.8,1.2-2.4C347.1,170.4,346.6,170.2,346.3,169.8z"/>
		<path fill="#AD3C42" d="M311.9,165.2c-0.7,2.4-2.4,1.3-4.1,2.1c-1,0.4-1.3,2.7-1.7,3.8c-0.6,1.7-1.1,3.4-1.4,5.1
			c0.8-0.6,1.5-1.4,2.3-2.1c0.3-0.3,0.6-0.8,0.9-1c0.6-0.3,0.1-0.4,0.8,0c0.2,0.2,1,0.8,1,1c0.1,0.4-1.3,1.6-1.6,1.9
			c-1.1,1.1-3.2,3.8-4.8,3.9c-1.3,0.1-2.2-1.3-3-2.1c-1,1-2.6,3-4.1,3.2c-1,0.1-1.9-0.9-2.5-1.5c0,0,0,0,0.1,0
			c-0.7-0.6-0.1-1.7,0-2.4c0.3-1.1,0.7-2.3,1-3.4c0.3-1,0.7-2,1.1-3c0.4-1,0.7-0.9,1.7-0.3c0.7,0.4,1.8,1.2,1.8,2
			c0,0.7-0.5,1.6-0.8,2.3c-0.3,0.8-0.6,1.6-0.8,2.5c1.2-1.2,2.7-2.1,3.2-3.7c0.6-1.8,1.2-3.6,1.8-5.4c-0.8,0.1-1,0.3-1.6-0.3
			c-0.7,0.9-2.2,0.1-2.9-0.6c-1-0.9-0.4-1.9,0.2-3c0.3-0.6,0.5-1,1.1-1c0.6,0,1.4,0.5,1.9,0.9c0.6,0.5,1.3,1.1,0.5,1.9
			c0.4-0.1,1.2-0.1,1.5-0.3c0.5-0.4,0.8-2,1.1-2.6c0.4-0.9,0.7-1.8,1.4-2.5c0.8-0.7,1.8-1.2,2.8-1.7c0.7-0.4,2-0.8,2.1,0.4
			c0,0.4-0.8,1.8-1,2.2c-0.5,1.1-0.9,2.2-1.3,3.3c0.7-0.1,1.6-0.5,2.3-0.4C311.1,164.3,312.1,164.7,311.9,165.2z"/>
		<path fill="#AD3C42" d="M288,176.4c-0.1-0.1-0.2-0.3-0.4-0.4c-0.6-0.4-0.6,0-1.1,0.5c-0.9,0.9-1.9,1.9-3,2.7
			c0.2-1.1,0.7-2.2,1.1-3.3c0.2-0.7,0.9-1.8,0.5-2.5c-0.3-0.5-1.1-1-1.5-1.3c-1.1-0.6-1.6-0.7-2.6,0.1c1.5-1.9,2.9-3.9,4.2-5.9
			c1-1.7,2.7-4,2.8-6c0.1-1.1-1.3-2.2-2.2-2.7c-1.1-0.7-1.8-0.3-2.7,0.6c-0.7,0.7-1.3,1.5-1.8,2.4c-2.6,3.9-4.5,8.3-6.1,12.8
			c-0.5,1.3-0.9,2.5-1.3,3.8c-0.3,1.1-1,1.7-1.8,2.5c-1.3,1.3-3.3,3-5.3,3c0.1-1.5,0.6-3.3,1.4-4.6c-0.2,0.4,0.2,1,0.7,1.2
			c0.8,0.3,2.2-0.7,2.8-1.2c0.9-0.7,1.3-1.2,0.7-2.2c-0.4-0.6-1-1.2-1.6-1.6c-1.1-0.9-1.9-0.8-3.2-0.2c-1.2,0.6-2.2,1.4-3,2.4
			c-0.8,1-1.5,2.1-1.9,3.3c-0.5,1.3-1.4,1.9-2.3,2.9c0-1.2,1-2.8,1.4-4c0.3-1,0.2-1.3-0.6-2c-0.6-0.5-1.5-1.4-2.4-1.3
			c-1.1,0.2-2.2,1.9-2.8,2.7c-0.8-0.8-1.7-1.3-2.8-1.8c-0.6-0.3-0.5-0.3-0.8,0.1c-0.2,0.2-0.3,0.9-0.4,1.2c-0.3,0.9-0.6,1.8-0.9,2.7
			c-0.7,2.4-4.3,5.7-7,5.7c0-0.9,0.4-0.9,1.1-1.4c0.6-0.3,1.1-0.7,1.6-1.1c1-0.7,2.3-1.6,3-2.7c1-1.5-0.7-3.6-2.2-4.1
			c-2-0.6-4.6,1.6-5.8,3.1c-0.8,1-1.4,2.1-1.8,3.4c-0.3,1.1-1.4,2-2.3,2.7c0.4-1.1,1.8-3.6,1.3-4.7c-0.6-1.2-2.4-1.4-3.3-2.2
			c-0.3-0.3-0.4-0.5-0.7-0.9c-0.3-0.4-0.7-0.7-1.1-0.9c-0.7-0.3-0.9,0.1-1.6,0.4c-0.9,0.5-1.9,0.9-2.8,1.3c2.8-4.9,6-9.5,8.7-14.4
			c0.8-1.5,3.8-1.9,5.3-2.3c3.1-0.9,6.3-1.6,9.5-1.4c-0.2-1.1-0.6-2.6-1.3-3.6c-0.6-0.9-1.1-0.8-2.1-0.6c-2.5,0.4-4.9,0.9-7.3,1.5
			c-5.4,1.5-10.6,3.5-15.5,6c-4.5,2.3-8.7,5.1-12.3,8.7c-0.8,0.8-1.6,1.6-2.1,2.6c-0.9,1.5-0.8,2.3,0.2,3.7c0.6,0.7,1.3,1.6,2.1,2.2
			c1.1,0.8,2.7,0.2,3.9-0.2c0.4-0.1,1.4-0.3,1.6-0.7c0.1-0.2,0.1-0.6,0.2-0.8c0.2-0.8,0.7-2,0.6-2.8c0-0.4,0.1-0.3-0.3-0.7
			c-0.4-0.4-0.3-0.3-0.8-0.2c-1.3,0.3-2.5,1.5-3.8,2c1.9-2.6,4.6-4.7,7.2-6.5c3-2.1,6.3-4,9.7-5.5c-3.3,4.6-6.6,9.3-9.4,14.2
			c-0.5,0.8-0.6,1-1.5,1.2c-0.6,0.2-1.3,0.3-1.9,0.5c-1.3,0.3-1.8,0.5-2.4,1.7c-0.3,0.6-0.3,1.5,0.5,1.8c0.6,0.2,2.1-0.4,2.7-0.5
			c-1.7,3.2-3.3,6.5-4.8,9.8c-0.1,0.2-0.7,1.2-0.6,1.4c0,0.1,0.2,0.2,0.3,0.3c0.4,0.6,0.5,0.4,1,0.3c1.1-0.3,3.5-0.8,4.2-1.7
			c0.4-0.5,0.6-1.5,0.9-2.1c0.4-0.9,0.8-1.7,1.3-2.6c0.8-1.6,1.6-3.2,2.5-4.7c0.5-0.8,0.8-1.9,1.7-2.2c0.7-0.3,1.6-0.4,2.3-0.6
			c0.6-0.2,1.3-0.3,1.9-0.6c0.7-0.4,0.6-0.7,1.4-0.2c-0.7,0.8-1.3,1.7-1.9,2.6c-0.2,0.3-0.7,0.7-0.8,1.1c-0.1,0.4-0.1,0.2,0.2,0.6
			c0.6,0.8,0.8,0.6,1.5,0c0.8-0.8,1.7-1.6,2.4-2.5c-0.3,1.1-0.8,2.2-0.9,3.3c-0.1,0.9,0.4,1.3,1,1.9c2.2,1.9,4.1-0.8,5.7-2.2
			c0.9,1.1,2.1,2.4,3.6,2.1c1.2-0.2,2.4-0.7,3.4-1.4c0.5-0.3,1-0.6,1.5-1c0.3-0.2,0.8-0.9,1.2-1c0.9-0.3,2.4,2.9,3.8,1.8
			c0.3-0.3,0.6-1.3,0.7-1.7c0.2-0.5,0.5-1.1,0.8-1.6c0.6-1.1,1.2-2.1,1.9-3.2c-0.2,1.1-1.2,2.5-0.9,3.6c0.1,0.5,0.7,1,1.1,1.3
			c2.1,1.8,4.2-0.6,5.7-2.2c0.9,1.3,2.2,2.5,3.9,2.1c2.5-0.5,4.6-2,6.4-3.7c0,1.1,2.9,2.7,3.5,2c0.4-0.4,0.5-1.6,0.8-2.1
			c0.3-0.7,0.6-1.4,1-2.1c0.6-1.2,1.3-2.3,2.2-3.4c-0.4,1.3-1.7,3.9-0.8,5.1c0.7,0.9,1.9,1.7,3.1,1.4c1.6-0.4,3.1-2.2,4.2-3.3
			c0.4-0.4,1.6-1.3,1.8-1.9C288.7,176.9,288.4,176.8,288,176.4z M283.3,164c0.4-0.9,0.9-1.8,1.4-2.7c-0.4,1-0.9,1.9-1.4,2.8
			C283.3,164.1,283.3,164.1,283.3,164C283.7,163.1,283.3,164.1,283.3,164z M268.6,177.3c0.1-0.1,0.1-0.2,0.2-0.2
			c-0.2,0.3-0.4,0.6-0.5,0.8C268.3,177.6,268.5,177.5,268.6,177.3z M245.6,180.6c0.2-0.4,0.5-0.7,0.8-1c-0.2,0.6-0.6,1.1-1.1,1.6
			C245.4,180.9,245.5,180.7,245.6,180.6C245.9,180.2,245.5,180.7,245.6,180.6z"/>
	</g>
</g>
<g id="Top_1_">
	<g>
		<path fill="#E95858" d="M353.1,150.3c0.3,0.3,0.4,0.5,0.5,0.6c-0.5,1.4-1.1,2.9-1.7,4.3c-0.6,1.5-1.1,2.9-1.7,4.2
			c-0.6,1.4-1.1,2.7-1.7,3.9c-0.6,1.2-1.1,2.4-1.5,3.4c-0.4-0.1-0.9-0.2-1.3-0.4c-0.4-0.2-0.7-0.4-0.9-0.7c0.3-0.9,0.7-1.8,1-2.9
			c0.3-1.1,0.7-2.3,1.1-3.7c0.4-1.4,0.8-3,1.3-4.8c0.5-1.8,1-3.9,1.6-6.2c0.4,0.1,0.8,0.3,1.2,0.6c0.4,0.3,0.8,0.5,1.2,0.8
			C352.5,149.8,352.8,150,353.1,150.3z"/>
	</g>
	<g>
		<path fill="#E95858" d="M338.9,170c0.6-0.6,1.2-1.2,1.8-1.9l0.7,0.7c-0.3,0.4-0.7,0.8-1.1,1.2c-0.4,0.4-0.9,0.9-1.3,1.3
			c-0.5,0.4-0.9,0.8-1.4,1.2c-0.5,0.4-0.9,0.8-1.4,1.1c-0.4,0.3-0.8,0.6-1.2,0.8c-0.4,0.2-0.7,0.3-1,0.4c0,0-0.1,0-0.2,0
			c-0.2,0-0.3,0-0.5-0.1c-0.3-0.1-0.5-0.2-0.8-0.3c-0.3-0.1-0.5-0.3-0.7-0.4c-0.2-0.2-0.3-0.3-0.3-0.5c0-0.1,0.1-0.2,0.2-0.3
			c0.1-0.1,0.3-0.2,0.5-0.4c0.2-0.2,0.5-0.5,0.7-0.9c0.3-0.4,0.6-1,1-1.7c0.2-0.4,0.4-0.8,0.6-1.3c0.2-0.4,0.3-0.8,0.5-1.2
			c0.1-0.4,0.2-0.7,0.3-1c0.1-0.3,0.1-0.4,0.1-0.5c0-0.1,0-0.2,0-0.2l-0.1-0.1l-0.1,0c-0.1,0.1-0.4,0.4-0.9,0.8
			c-0.4,0.5-1,1.2-1.6,2.1c-0.6,0.9-1.2,2-1.9,3.2c-0.7,1.2-1.3,2.7-1.9,4.2c-0.5,1.5-1,3-1.5,4.5c-0.5,1.5-1,3.1-1.4,4.6l-3.9,1.5
			c0.6-1.9,1.2-3.7,1.9-5.5c0.7-1.8,1.3-3.6,1.9-5.5c0.4-1.1,0.8-2.3,1.2-3.4c-0.1,0.1-0.2,0.2-0.3,0.3c-0.4,0.4-0.8,0.8-1.3,1.2
			c-0.4,0.4-0.9,0.8-1.3,1.1c-0.4,0.3-0.8,0.6-1.2,0.8c-0.4,0.2-0.7,0.4-0.9,0.4c0,0-0.1,0-0.1,0c-0.1,0-0.3,0-0.5-0.1
			c-0.2-0.1-0.4-0.2-0.6-0.3c-0.2-0.2-0.3-0.3-0.5-0.5c-0.1-0.2-0.2-0.4-0.2-0.6c0-0.2,0.1-0.5,0.2-1c0.1-0.5,0.3-1.1,0.5-1.7
			c-0.5,0.7-0.9,1.3-1.4,1.9c-0.5,0.6-0.9,1-1.2,1.4c-0.4,0.4-0.7,0.7-1,1c-0.3,0.3-0.5,0.4-0.6,0.6c-0.1,0.1-0.2,0.1-0.3,0.2
			c-0.1,0-0.2,0.1-0.3,0.1c0,0-0.1,0-0.1,0c-0.2,0-0.3,0-0.5-0.1c-0.2-0.1-0.5-0.2-0.7-0.4c-0.2-0.2-0.4-0.3-0.5-0.5
			c-0.1-0.2-0.2-0.4-0.2-0.6c0-0.2,0.1-0.6,0.2-1.2c0.2-0.6,0.4-1.2,0.6-2c0.3-0.8,0.6-1.7,0.9-2.7c0.3-1,0.7-2,1.1-3.1l0.1-0.1
			l0.1,0c0.2,0,0.5,0.1,0.8,0.1c0.3,0.1,0.7,0.2,1,0.3c0.3,0.1,0.6,0.2,0.8,0.3c0.2,0.1,0.4,0.2,0.4,0.2c0,0.1-0.1,0.3-0.2,0.6
			c-0.1,0.3-0.3,0.7-0.5,1.1c-0.2,0.4-0.4,0.9-0.5,1.3c-0.2,0.5-0.4,0.9-0.5,1.4c-0.2,0.4-0.3,0.8-0.4,1.2c-0.1,0.4-0.2,0.6-0.2,0.8
			l0.1,0.1c0.1,0,0.3-0.2,0.5-0.4c0.3-0.3,0.6-0.7,1-1.2c0.4-0.5,0.9-1.2,1.4-2.1c0.5-0.8,1.1-1.9,1.6-3l0.4-1.3
			c0-0.1,0.1-0.1,0.2-0.2c0.1,0,0.3,0.1,0.5,0.2c0.2,0.1,0.5,0.2,0.8,0.4c0.3,0.2,0.5,0.3,0.7,0.5c0.2,0.2,0.3,0.3,0.4,0.3l0,0.2
			l0,0.2c-0.1,0.3-0.2,0.7-0.4,1.1c-0.1,0.4-0.3,0.8-0.4,1.3c-0.1,0.4-0.3,0.9-0.4,1.3c-0.1,0.4-0.3,0.9-0.4,1.2
			c-0.1,0.4-0.2,0.7-0.3,1c-0.1,0.3-0.1,0.5-0.1,0.6l0.1,0.1c0.1,0,0.3-0.1,0.5-0.3c0.2-0.2,0.5-0.4,0.8-0.6
			c0.3-0.3,0.6-0.5,0.9-0.9c0.3-0.3,0.6-0.6,0.9-0.9c0.3-0.3,0.6-0.6,0.8-0.8c0.1-0.1,0.2-0.2,0.3-0.3c0.6-1.7,1.2-3.5,1.7-5.2
			c0-0.1,0.1-0.2,0.1-0.3l0.2-0.1c0.2,0,0.4,0.1,0.6,0.2c0.2,0.1,0.5,0.2,0.7,0.4c0.2,0.2,0.4,0.3,0.6,0.5c0.2,0.2,0.3,0.3,0.4,0.4
			l0,0.2c0,0.1-0.1,0.2-0.1,0.3l-0.5,1.7c0.6-0.8,1.1-1.5,1.5-2c0.5-0.5,0.9-1,1.2-1.3c0.4-0.3,0.7-0.5,0.9-0.7
			c0.3-0.1,0.4-0.2,0.6-0.2c0,0,0.1,0,0.1,0c0.1,0,0.3,0,0.5,0.1c0.2,0.1,0.4,0.2,0.6,0.4c0.2,0.2,0.4,0.3,0.5,0.5
			c0.2,0.2,0.3,0.3,0.4,0.4c0.1,0.1,0.2,0.2,0.2,0.3c0,0.1,0,0.3,0,0.4c0,0.5-0.1,1.1-0.2,1.7c-0.2,0.6-0.4,1.2-0.7,1.9
			c-0.3,0.6-0.6,1.2-0.9,1.8c-0.3,0.6-0.7,1.1-1,1.5c0.3-0.2,0.6-0.4,0.9-0.6c0.3-0.2,0.6-0.5,0.9-0.7c0.3-0.3,0.6-0.5,0.9-0.8
			C338.4,170.5,338.7,170.2,338.9,170z"/>
	</g>
	<g>
		<path fill="#E95858" d="M346.2,169.7c0.1,0.1,0.2,0.2,0.2,0.2c0,0.1-0.1,0.3-0.2,0.6c-0.1,0.3-0.3,0.7-0.5,1
			c-0.2,0.4-0.4,0.7-0.6,1c-0.2,0.3-0.3,0.4-0.4,0.5c0,0,0,0,0,0c-0.1,0-0.2,0-0.3,0c-0.2,0-0.3-0.1-0.5-0.2
			c-0.2-0.1-0.4-0.1-0.6-0.2c-0.2-0.1-0.4-0.2-0.6-0.3c-0.2-0.1-0.3-0.2-0.4-0.2c-0.1-0.1-0.2-0.1-0.2-0.2c0-0.2,0.1-0.5,0.2-0.9
			c0.1-0.4,0.3-0.7,0.5-1.1c0.2-0.4,0.4-0.7,0.5-1c0.2-0.3,0.3-0.4,0.4-0.4c0,0,0.1,0,0.1,0c0.1,0,0.2,0,0.3,0.1
			c0.2,0.1,0.4,0.1,0.6,0.2c0.2,0.1,0.4,0.2,0.6,0.3c0.2,0.1,0.4,0.2,0.6,0.3C345.9,169.6,346.1,169.6,346.2,169.7z"/>
	</g>
	<g>
		<path fill="#E95858" d="M297.9,166.7c-0.2-0.1-0.3-0.2-0.3-0.2c0-0.2,0.1-0.5,0.2-0.9c0.1-0.4,0.3-0.7,0.4-1.1
			c0.2-0.4,0.3-0.7,0.5-0.9s0.3-0.4,0.4-0.4c0,0,0.1,0,0.1,0c0.2,0,0.3,0,0.5,0.1c0.3,0.1,0.5,0.2,0.8,0.3c0.3,0.1,0.5,0.2,0.6,0.4
			c0.2,0.1,0.3,0.2,0.3,0.3c0,0,0,0.2-0.1,0.3c-0.1,0.2-0.1,0.4-0.2,0.6c-0.1,0.2-0.2,0.5-0.3,0.7c-0.1,0.3-0.2,0.5-0.4,0.7
			c-0.1,0.2-0.2,0.4-0.3,0.5c-0.1,0.2-0.2,0.2-0.2,0.2c0,0-0.1,0-0.1,0c-0.2,0-0.3,0-0.6-0.1c-0.3-0.1-0.5-0.1-0.8-0.2
			C298.3,166.9,298.1,166.8,297.9,166.7z"/>
	</g>
	<g>
		<path fill="#E95858" d="M311,164.3c0.1,0,0.1,0.1,0.1,0.2c0,0.1-0.1,0.3-0.2,0.5c-0.1,0.2-0.3,0.4-0.4,0.6
			c-0.2,0.2-0.3,0.4-0.4,0.5l-0.1,0.1c-0.1,0-0.1,0.1-0.2,0.1l-3.1,0.4c-0.4,1-0.7,2-1.1,3c-0.3,1-0.7,1.9-0.9,2.8
			c-0.3,0.9-0.5,1.7-0.6,2.4c-0.2,0.7-0.2,1.3-0.2,1.8l0.1,0.1c0.1,0,0.3-0.1,0.5-0.3c0.2-0.2,0.5-0.4,0.8-0.6
			c0.3-0.3,0.6-0.5,0.9-0.8c0.3-0.3,0.6-0.6,0.9-0.9c0.3-0.3,0.6-0.6,0.8-0.8c0.2-0.2,0.4-0.4,0.5-0.5c0.1,0.1,0.2,0.2,0.3,0.3
			c0.1,0.1,0.3,0.3,0.4,0.4c-0.2,0.3-0.5,0.6-0.9,1c-0.3,0.4-0.7,0.8-1.1,1.2c-0.4,0.4-0.8,0.8-1.2,1.2c-0.4,0.4-0.8,0.8-1.3,1.1
			c-0.4,0.3-0.8,0.6-1.1,0.8c-0.4,0.2-0.6,0.4-0.9,0.4c0,0,0,0-0.1,0c-0.2,0-0.4,0-0.6-0.2c-0.3-0.1-0.6-0.3-0.8-0.5
			c-0.3-0.2-0.5-0.4-0.7-0.6c-0.2-0.2-0.3-0.4-0.3-0.6c0-0.2,0-0.5,0.1-0.9l-0.2,0.2c-0.4,0.4-0.8,0.8-1.2,1.2
			c-0.4,0.4-0.8,0.8-1.3,1.1c-0.4,0.3-0.8,0.6-1.1,0.8c-0.4,0.2-0.6,0.4-0.9,0.4c0,0-0.1,0-0.1,0c-0.1,0-0.3,0-0.5-0.1
			c-0.2-0.1-0.5-0.2-0.7-0.3c-0.2-0.1-0.4-0.3-0.6-0.5c-0.2-0.2-0.2-0.4-0.2-0.6c0.1-0.5,0.2-1,0.4-1.7c0.2-0.6,0.4-1.3,0.6-1.9
			c0.2-0.7,0.4-1.3,0.6-1.9c0.2-0.6,0.4-1.2,0.6-1.7s0.3-0.9,0.5-1.2c0.1-0.3,0.2-0.5,0.3-0.5c0.1,0,0.2,0.1,0.5,0.1
			c0.2,0.1,0.5,0.2,0.8,0.4c0.3,0.2,0.5,0.3,0.7,0.5c0.2,0.2,0.3,0.4,0.3,0.5l0,0.1l0,0.2c-0.1,0.3-0.2,0.6-0.3,1
			c-0.1,0.4-0.3,0.8-0.4,1.2c-0.1,0.4-0.3,0.8-0.4,1.2c-0.1,0.4-0.3,0.8-0.4,1.2c-0.1,0.4-0.2,0.7-0.3,0.9c-0.1,0.3-0.1,0.5-0.1,0.6
			l0.1,0.1c0.1,0,0.3-0.1,0.5-0.3c0.2-0.2,0.5-0.4,0.8-0.7c0.3-0.3,0.6-0.6,0.9-0.9c0.3-0.3,0.6-0.6,0.9-0.9
			c0.3-0.3,0.6-0.6,0.8-0.8c0.1-0.4,0.2-0.7,0.3-1.1c0.3-0.9,0.6-1.9,1-3c0.4-1.1,0.7-2.1,1.1-3.1l-2.2,0.3c0-0.1,0-0.2,0-0.3
			c0-0.1,0.1-0.3,0.2-0.4c0.1-0.1,0.2-0.3,0.2-0.4c0.1-0.1,0.2-0.2,0.3-0.3l2-0.4c0.3-0.8,0.6-1.5,0.8-2.1c0.3-0.7,0.5-1.2,0.7-1.7
			c0.1-0.1,0.1-0.3,0.2-0.4c0.1-0.1,0.1-0.3,0.3-0.4c0.1-0.2,0.3-0.3,0.4-0.5c0.2-0.2,0.4-0.4,0.7-0.5c0.2-0.2,0.5-0.3,0.8-0.5
			c0.3-0.2,0.6-0.4,1-0.5c0.3-0.2,0.6-0.3,0.9-0.4c0.3-0.1,0.4-0.2,0.6-0.2c0,0,0,0,0.1,0c0.1,0,0.1,0,0.1,0l0,0.1
			c-0.1,0.1-0.2,0.4-0.3,0.7c-0.2,0.4-0.4,0.9-0.6,1.4c-0.2,0.6-0.5,1.2-0.8,2c-0.3,0.7-0.6,1.5-0.9,2.3L311,164.3z"/>
	</g>
	<g>
		<path fill="#E95858" d="M287.3,175.7c0.1,0.1,0.2,0.2,0.3,0.3c0.1,0.1,0.3,0.3,0.4,0.4c-0.2,0.3-0.5,0.6-0.9,1
			c-0.3,0.4-0.7,0.8-1.1,1.2c-0.4,0.4-0.8,0.8-1.2,1.2c-0.4,0.4-0.8,0.7-1.2,1.1c-0.4,0.3-0.8,0.6-1.1,0.8c-0.4,0.2-0.6,0.3-0.9,0.4
			c-0.3,0-0.5,0-0.7-0.1c-0.3-0.1-0.5-0.2-0.8-0.3c-0.2-0.1-0.5-0.3-0.6-0.4c-0.2-0.2-0.3-0.3-0.3-0.5c0-0.5,0.1-1,0.3-1.6
			c0.2-0.6,0.3-1.3,0.6-1.9c0.2-0.7,0.4-1.3,0.7-2c0.2-0.7,0.5-1.2,0.7-1.8c-0.1,0-0.2,0.2-0.5,0.4c-0.2,0.3-0.5,0.6-0.9,1
			c-0.3,0.4-0.7,0.9-1.1,1.5c-0.4,0.6-0.8,1.2-1.2,1.9c-0.4,0.7-0.8,1.4-1.1,2.2c-0.4,0.8-0.7,1.6-0.9,2.5c0,0.1-0.1,0.2-0.1,0.3
			c-0.1,0.1-0.2,0.1-0.3,0.1c-0.2,0-0.3,0-0.4-0.1c-0.2-0.1-0.4-0.2-0.6-0.3c-0.2-0.1-0.4-0.2-0.6-0.3c-0.2-0.1-0.4-0.2-0.5-0.3
			L273,182c0-0.1-0.1-0.2-0.1-0.3c0-0.5,0.1-1.1,0.2-1.7c-0.2,0.2-0.4,0.4-0.5,0.5c-0.7,0.7-1.5,1.4-2.3,2c-0.8,0.6-1.6,1.1-2.5,1.5
			c-0.9,0.4-1.8,0.7-2.7,0.8c-0.3,0-0.5,0-0.6-0.1c-0.2-0.1-0.5-0.2-0.7-0.4c-0.3-0.2-0.5-0.4-0.7-0.6c-0.2-0.3-0.4-0.5-0.6-0.8
			c-0.1-0.1-0.1-0.2-0.1-0.4c0-0.1,0-0.2,0-0.3c-0.3,0.3-0.6,0.6-1,1c-0.4,0.4-0.8,0.8-1.3,1.1c-0.4,0.3-0.8,0.6-1.1,0.8
			c-0.4,0.2-0.6,0.4-0.9,0.4c-0.3,0-0.4,0-0.6-0.1c-0.2-0.1-0.5-0.2-0.7-0.3c-0.2-0.1-0.4-0.3-0.6-0.5c-0.2-0.2-0.2-0.4-0.2-0.6
			c0.1-0.4,0.2-1,0.4-1.5c0.2-0.6,0.3-1.2,0.5-1.8c0.2-0.6,0.4-1.2,0.6-1.8c0.2-0.6,0.4-1.2,0.6-1.7c-0.2,0.3-0.5,0.7-0.9,1.1
			c-0.4,0.4-0.8,1-1.3,1.7c-0.5,0.7-1,1.5-1.5,2.5c-0.5,1-1,2.1-1.5,3.3c-0.1,0.2-0.1,0.3-0.2,0.4c-0.1,0.1-0.2,0.1-0.3,0.2
			c-0.3,0-0.4,0-0.6-0.1c-0.2-0.1-0.5-0.2-0.7-0.3c-0.2-0.1-0.5-0.3-0.7-0.5c-0.2-0.2-0.4-0.3-0.6-0.5c0-0.1,0-0.3,0.1-0.6
			c0.1-0.3,0.1-0.7,0.2-1.2c-0.4,0.3-0.7,0.6-1.1,1c-0.8,0.8-1.6,1.4-2.4,1.9c-0.8,0.5-1.5,0.9-2.2,1.2c-0.7,0.3-1.4,0.5-2,0.5
			c-0.4,0-0.7-0.1-0.9-0.2c-0.3-0.2-0.7-0.4-1-0.6c-0.3-0.3-0.5-0.5-0.7-0.8c-0.2-0.3-0.3-0.6-0.3-0.8c-0.3,0.2-0.6,0.6-1,0.9
			c-0.4,0.4-0.8,0.8-1.3,1.1c-0.4,0.3-0.8,0.6-1.1,0.8c-0.4,0.2-0.6,0.4-0.9,0.4c-0.2,0-0.4,0-0.6-0.1c-0.2-0.1-0.5-0.2-0.7-0.3
			c-0.2-0.1-0.4-0.3-0.6-0.5c-0.2-0.2-0.2-0.4-0.2-0.6c0.2-0.7,0.3-1.4,0.5-1.9c0.2-0.6,0.3-1,0.4-1.4c0.1-0.4,0.3-0.7,0.4-1
			c0.1-0.2,0.2-0.4,0.2-0.6c-0.1,0-0.2-0.1-0.4-0.1c-0.1,0-0.2-0.1-0.3-0.1c-0.2,0.2-0.4,0.4-0.6,0.7c-0.2,0.2-0.4,0.5-0.6,0.7
			c-0.2,0.2-0.4,0.5-0.6,0.7c-0.2,0.2-1.8,1.7-1.9,1.8l-0.4-0.2c0.1-0.2,2.7-3.6,3.1-4.1c-0.3-0.1-0.5-0.2-0.7-0.4
			c-0.2-0.1-0.4-0.2-0.5-0.3c-0.2-0.1-0.3-0.2-0.5-0.3c-0.3,0.1-0.5,0.4-0.7,0.6c-0.2,0.1-0.5,0.2-0.8,0.3c-0.3,0.1-0.7,0.2-1.1,0.3
			c-0.4,0.1-0.9,0.2-1.3,0.4c-0.5,0.1-1,0.3-1.5,0.4c-0.6,1.1-1.2,2.1-1.8,3.2c-0.6,1.1-1.1,2.1-1.6,3.1c-0.5,1-1,1.9-1.4,2.9
			c-0.4,0.9-0.8,1.8-1.1,2.5c-0.2,0.1-0.6,0.3-1,0.4c-0.4,0.2-0.9,0.3-1.4,0.5c-0.5,0.2-0.9,0.3-1.3,0.5c-0.4,0.1-0.7,0.3-0.9,0.3
			c1-2.3,2-4.4,3-6.5c1-2,2-4,3-5.9c-0.5,0.1-1,0.2-1.5,0.3c-0.5,0.1-0.9,0.2-1.3,0.3c-0.4,0.1-0.7,0.1-0.9,0.2
			c-0.2,0.1-0.4,0.1-0.4,0.1c-0.1-0.2,0-0.4,0.1-0.6c0.1-0.2,0.2-0.5,0.4-0.7c0.1-0.3,0.3-0.5,0.4-0.7c0.2-0.2,0.3-0.3,0.4-0.3
			c0.8-0.2,1.6-0.4,2.3-0.6c0.7-0.2,1.4-0.4,2.1-0.6c1.7-2.9,3.4-5.7,5.2-8.3c1.8-2.6,3.6-5.2,5.4-7.7c0-0.1,0.1-0.1,0.1-0.3
			l-0.1-0.2c-2.4,0.9-4.4,1.9-6.2,2.9c-1.8,1-3.4,2-4.8,3s-2.6,1.9-3.6,2.8c-1,0.9-1.8,1.7-2.5,2.3c-0.6,0.7-1.1,1.2-1.4,1.7
			c-0.3,0.4-0.5,0.7-0.5,0.7c0.6,0.1,1,0,1.4-0.1c0.4-0.1,0.8-0.3,1.1-0.5c0.4-0.2,0.7-0.4,1.1-0.6c0.4-0.2,1.7-0.9,2-1.1
			c0,0.2-0.8,3.8-0.8,4c-0.1,0.1-0.3,0.2-0.6,0.3c-0.3,0.1-0.6,0.2-1,0.3s-0.8,0.2-1.3,0.3c-0.5,0.1-1,0.2-1.6,0.3
			c-0.3,0-0.5-0.1-0.7-0.2c-0.2-0.1-0.4-0.3-0.6-0.5c-0.2-0.2-0.4-0.5-0.7-0.7c-0.2-0.3-0.4-0.5-0.6-0.8c-0.2-0.2-0.3-0.5-0.4-0.7
			c-0.1-0.2-0.2-0.4-0.2-0.5c0-0.6,0.2-1.4,0.7-2.1c0.5-0.8,0.8-1.3,1.9-2.4c8.1-8.7,25.4-15.4,36.8-16.7c0.3,0.6,1,2.1,1.3,3.6
			c-0.3,0-0.7,0-1,0c-5.8,0-13,3-13.5,3.1c-0.2,0.7-2.5,4.2-2.9,4.8c-0.4,0.6-0.8,1.4-1.3,2.2c-0.5,0.9-1.1,1.8-1.7,2.8
			c-0.6,1-1.2,2.1-1.9,3.2c-0.7,1.1-1.3,2.3-2,3.5c0.9-0.4,1.7-0.7,2.4-1c0.7-0.3,1.2-0.6,1.6-0.8c0.4-0.2,0.8-0.4,1-0.5
			c0.1-0.1,0.2-0.1,0.2-0.2c0.1-0.1,0.1-0.2,0.2-0.2c0,0,0.1,0,0.2,0c0.1,0,0.2,0.1,0.4,0.1c0.1,0,0.3,0.1,0.4,0.2
			c0.1,0.1,0.2,0.1,0.2,0.2c0,0.1,0,0.2,0,0.3c0,0.2,0,0.4,0,0.6c0.4,0.2,0.8,0.3,1.2,0.5c0.4,0.2,0.8,0.4,1.2,0.6
			c0.4,0.2,0.8,0.4,1.2,0.7c0.1,0.1,0.2,0.2,0.3,0.3c0,0.1,0,0.2,0,0.3c-0.1,0.4-0.3,0.9-0.5,1.5c-0.2,0.6-0.4,1.1-0.6,1.7
			c-0.2,0.5-0.3,1-0.5,1.5c-0.1,0.4-0.2,0.7-0.2,0.9c0.2,0.1,0.4,0,0.6-0.2c0.2-0.2,0.5-0.4,0.8-0.6c0.3-0.3,0.6-0.6,0.9-0.9
			c0.3-0.3,0.6-0.6,0.9-0.9c0.1-0.2,0.1-0.4,0.2-0.6c0.2-0.8,0.6-1.5,0.9-2.1c0.4-0.6,0.8-1.2,1.3-1.7c0.5-0.5,1-1,1.5-1.3
			c0.5-0.4,1.1-0.7,1.6-0.9c0.5-0.2,1-0.4,1.5-0.4c0.1,0,0.1,0,0.2,0c0.2,0,0.5,0.1,0.7,0.2c0.3,0.1,0.6,0.3,0.9,0.6
			c0.3,0.2,0.5,0.5,0.6,0.8c0.2,0.3,0.2,0.5,0.2,0.8c0,0.4-0.1,0.8-0.4,1.2c-0.3,0.4-0.7,0.9-1.3,1.3c-0.5,0.5-1.2,1-1.9,1.5
			c-0.8,0.5-1.6,1.1-2.5,1.6c0,0.3,0,0.5,0,0.8c0,0.3,0.1,0.5,0.2,0.6c0.1,0.1,0.2,0.1,0.4,0.1c0.1,0,0.2,0,0.4,0
			c0.7-0.1,1.3-0.3,1.9-0.6c0.6-0.3,1.2-0.7,1.7-1.2c0.6-0.4,1.1-1,1.6-1.5c0.4-0.4,0.8-0.9,1.2-1.3c0.1-0.4,0.2-0.9,0.4-1.3
			c0.2-0.7,0.4-1.3,0.7-2c0.2-0.7,0.5-1.4,0.8-2c0.4,0.2,0.9,0.3,1.5,0.6c0.5,0.2,1,0.5,1.5,0.9c-0.1,0.4-0.3,0.7-0.4,1.1
			c-0.1,0.4-0.2,0.7-0.4,1.1c0.6-0.9,1.2-1.6,1.7-2.1c0.5-0.5,0.9-1,1.2-1.3c0.3-0.3,0.6-0.5,0.8-0.7c0.2-0.1,0.4-0.2,0.5-0.2
			c0.2,0,0.4,0,0.6,0.1c0.3,0.1,0.5,0.2,0.8,0.4c0.3,0.2,0.5,0.3,0.7,0.5c0.2,0.2,0.3,0.4,0.3,0.5l-0.1,0.3c-0.1,0.3-0.2,0.6-0.3,1
			c-0.1,0.4-0.3,0.8-0.4,1.2c-0.1,0.4-0.3,0.8-0.4,1.2c-0.1,0.4-0.3,0.8-0.4,1.2c-0.1,0.4-0.2,0.7-0.3,0.9c-0.1,0.3-0.1,0.5-0.1,0.6
			c0.2,0.1,0.4,0,0.6-0.2c0.2-0.2,0.5-0.4,0.8-0.7c0.3-0.3,0.6-0.5,0.9-0.9c0.3-0.3,0.6-0.6,0.9-0.9c0-0.1,0.1-0.3,0.1-0.4
			c0.2-0.6,0.4-1.3,0.8-1.9c0.3-0.6,0.7-1.2,1.2-1.7c0.5-0.5,0.9-1,1.5-1.5c0.5-0.4,1.1-0.8,1.7-1.1c0.6-0.3,1.2-0.5,1.8-0.6
			c0.1,0,0.2,0,0.4,0.1c0.2,0.1,0.3,0.2,0.5,0.3c0.2,0.1,0.4,0.3,0.6,0.5c0.2,0.2,0.4,0.4,0.5,0.6c0.2,0.2,0.3,0.4,0.4,0.6
			c0.1,0.2,0.1,0.4,0.1,0.5c0,0.2-0.2,0.4-0.5,0.7c-0.3,0.3-0.6,0.5-1,0.8c-0.4,0.3-0.8,0.5-1.2,0.7c-0.4,0.2-0.8,0.3-1.1,0.4
			c-0.2,0-0.3,0-0.3-0.1c0-0.1,0.1-0.3,0.2-0.5c0.2-0.3,0.3-0.5,0.5-0.8c0.2-0.3,0.4-0.6,0.5-0.9c0.2-0.3,0.2-0.5,0.2-0.7
			c0-0.1,0-0.2-0.1-0.2l-0.2-0.1c-0.2,0-0.5,0.2-0.7,0.4c-0.2,0.2-0.5,0.6-0.7,1c-0.2,0.4-0.5,0.8-0.7,1.3c-0.2,0.5-0.4,1-0.6,1.5
			c-0.2,0.5-0.3,1-0.4,1.5c-0.1,0.5-0.2,0.9-0.2,1.3c0,0.2,0.1,0.4,0.2,0.5c0.1,0,0.2,0.1,0.4,0.1c0.1,0,0.2,0,0.3,0
			c0.7-0.1,1.4-0.3,2-0.6c0.6-0.3,1.3-0.7,1.9-1.2c0.6-0.5,1.2-1,1.7-1.5c0.4-0.4,0.9-0.9,1.3-1.3c0.2-0.7,0.4-1.5,0.7-2.3
			c0.4-1.3,0.9-2.6,1.4-4c0.5-1.4,1.1-2.7,1.7-4.1c0.6-1.3,1.2-2.6,1.9-3.9c0.7-1.2,1.3-2.3,2-3.3c0.6-1,1.2-1.7,1.8-2.4
			c0.6-0.6,1.1-1,1.6-1.1c0.2,0,0.5,0.1,0.7,0.3c0.2,0.1,0.5,0.3,0.7,0.4c0.2,0.2,0.4,0.3,0.6,0.5c0.2,0.2,0.3,0.3,0.4,0.4
			c0.1,0.1,0.1,0.2,0.1,0.3c0,0.1,0,0.2,0,0.3c0,0.4-0.1,0.9-0.3,1.5c-0.2,0.6-0.5,1.3-0.9,2c-0.4,0.8-0.8,1.6-1.4,2.5
			c-0.5,0.9-1.1,1.8-1.8,2.7c-0.6,0.9-1.3,1.9-2.1,2.9c-0.7,1-1.5,1.9-2.4,2.8c-0.2,0.6-0.4,1.2-0.6,1.8c0.6-0.7,1.1-1.2,1.5-1.7
			c0.5-0.5,0.9-0.9,1.2-1.1c0.4-0.3,0.7-0.5,0.9-0.6c0.3-0.1,0.4-0.2,0.6-0.2c0.1,0,0.3,0,0.5,0.1c0.2,0.1,0.5,0.2,0.7,0.3
			c0.3,0.1,0.5,0.3,0.7,0.4c0.2,0.2,0.3,0.3,0.4,0.4c0,0,0,0.1,0,0.2c0,0.1,0,0.2-0.1,0.2c-0.1,0.3-0.2,0.6-0.3,1
			c-0.1,0.4-0.3,0.8-0.4,1.3c-0.2,0.4-0.3,0.9-0.4,1.3c-0.2,0.4-0.3,0.9-0.4,1.2c-0.1,0.4-0.2,0.7-0.3,1c-0.1,0.3-0.1,0.5-0.1,0.6
			c0.3,0.1,0.5,0,0.7-0.2c0.3-0.2,0.5-0.4,0.9-0.6c0.3-0.3,0.6-0.5,1-0.9c0.3-0.3,0.6-0.6,1-0.9c0.3-0.3,0.6-0.6,0.8-0.8
			C287,176,287.2,175.8,287.3,175.7z M280.5,167.9c-0.2,0.6-0.5,1.1-0.7,1.7c0.7-1,1.4-2,2-3.1c0.6-1,1.2-2,1.8-3
			c0.5-0.9,0.9-1.8,1.2-2.6c0.3-0.8,0.5-1.4,0.5-1.9c0-0.2,0-0.3-0.1-0.3c-0.1,0-0.3,0.2-0.6,0.6c-0.3,0.4-0.6,0.9-0.9,1.6
			c-0.4,0.7-0.7,1.4-1.2,2.3c-0.4,0.9-0.9,1.9-1.3,2.9C280.9,166.8,280.7,167.4,280.5,167.9 M244.1,181.2c-0.2,0.5-0.4,1.1-0.6,1.6
			c0.4-0.3,0.8-0.6,1.1-1s0.7-0.7,1-1c0.3-0.4,0.5-0.7,0.7-1.1c0.2-0.4,0.3-0.7,0.3-1c0-0.1,0-0.2-0.1-0.2c0-0.1-0.1-0.1-0.2-0.1
			c0,0,0,0-0.1,0c-0.2,0-0.4,0.2-0.7,0.4c-0.2,0.3-0.5,0.6-0.7,1C244.6,180.2,244.3,180.7,244.1,181.2"/>
	</g>
</g>
</svg>
