<svg xmlns="http://www.w3.org/2000/svg" viewBox="0 0 373.1 210.1" enable-background="new 0 0 373.1 210.1"><g><path fill="#ea5858" d="M135.3 98.9c.8.9 1 2 .6 3.2-2.8 8.8-11.2 18-21.7 18.8H113c-3.2 0-5.9-1.1-8.2-3.2-4.8-4.6-6.9-14.1-6-27-4.3 9-8.8 19-13.4 30.1l-.3.8-.9.4c-2.4 1-4.6 1.5-6.4 1.7h-.9c-2.4 0-3.8-.8-4.7-1.5-1.2-1-1.8-2.6-1.8-4.4.2-8.6 1.8-25.2 4.2-42.2-1.3.5-2.5 1-3.7 1.4-4 21.3-12.4 34.9-18.8 42.6-8.1 9.8-17.7 15.8-26.3 16.5-.5 0-1.1.1-1.7.1-8.5 0-24.3-4.9-24.2-41.6.1-38.8 21.9-63.9 32.4-67.3 4.1-6.6 10.6-10.7 18-11.3.5 0 .9-.1 1.3-.1 12.8 0 21.6 14.7 21.5 36.4 0 4.7-.3 9.7-.9 15.3 1.5-.4 3-.9 4.5-1.5l5.6-2.6c1.7-.8 3.4-1.3 5-1.4h.8c1.8 0 3.4.5 4.4 1.5 1.1 1 1.5 2.5 1.2 4.1-.8 4.3-2 9.5-3.4 15-.7 2.8-1.4 5.8-2.1 8.7 5-11.1 9-18.8 13.9-27.5 1.5-2.6 4.2-4.3 7.3-4.6h.8c3.3 0 6.7 1.6 9.6 4.5l.6.6-.2.9c-8.9 37.3-4.5 44.2-3.6 45.1.1.1.3.3.5.3 2-.2 5.2-1.4 9.4-10.8l.2-.5.5-.3c1.1-.8 2.4-1.2 3.7-1.4h.5c1.8-.2 3.1.3 3.9 1.2zM32.5 123.7c7.3-.6 16.6-15.5 20.5-43.1h-1.6c-7.3 0-13.1-2.2-17.2-6.5-4.9-5.1-7.3-13.3-7.3-24.3v-.5c-5.1 13.5-7.5 29.5-7.6 40.7-.1 20.4 6.5 33.7 12.9 33.7.1.1.2.1.3 0m21.9-55.5c.3-4.6.5-8.9.5-13.5 0-17.3-6.3-24.2-9.9-24.2h-.2c-1.9.2-4 3-4 8.8-.1 16.2 4.5 25.9 13.6 28.9M334.1 83.4c.8.8 1 2 .6 3.2-2.8 8.7-11.1 18-21.7 19-.5 0-.9.1-1.4.1-3.6 0-7.6-1.2-10.2-5.7-3.8 4.8-7.9 7-13.3 7.5-.5 0-1 .1-1.5.1-10.1 0-16.1-8.3-16-22.5 0-6.9 1.7-14.1 4.8-20.4-2.8.9-5.6 1.6-7.8 1.9.1 14.9-4.9 29-13.1 37.2-4.5 4.5-9.9 7.1-15.7 7.6-.5 0-1 .1-1.6.1-3.8 0-6.8-1.1-9.2-3.4-7.9-7.6-5.6-26.3-2.9-41.9-3.2.7-6.4 1.6-9.6 1.6-1.4 0-2.7-.2-4-.6-4.6-1.5 11.3-9.5 13.3-10.8.7-.4 1.5-.9 2.2-1.3l.8-.7c3.8-2.6 8.5-4.4 11.9-4.7h.9c2.3 0 3.5.8 4.2 1.5.2.2.3.3.4.5 1 1 1.1 2 .6 3.1 0 .4-.1.7-.2 1.1-7.8 28.2-6.1 45-3.7 46 1.4-.1 2.9-.9 4.2-2.3 5.2-5.5 7.7-18.8 6.4-33.9-4-2.3-5.7-6.6-4.3-11.3 1.6-5.1 6.3-9 11.4-9.4l1.5-.1.7 1.4c1 2.1 4.1 8.5 11.1 8.5h.9c2.3-.2 8.8-1.3 11.5-2.8.4-.2.7-.3 1.1-.4 4.3-3 9.3-5 15.2-5.5.5 0 1-.1 1.5-.1 3.7 0 8.1 1 11 3.9 2.2 2.2 3.1 5.2 2.5 8.6 1.4 1.3 2.5 4 .7 9.7-5.1 16.1-4.8 24.2-2.9 26.5.4.4.8.6 1.4.6 2.2-.2 5.4-1.5 9.6-10.8l.2-.5.5-.3c1.1-.8 2.4-1.2 3.7-1.3h.5c1.7-.4 3 .1 3.8 1zm-33.6-12.6c-2.1-.8-2.9-2.3-2.8-4.8v-.7l.5-.5c2.2-2.2 3.5-6.3 2.7-8.1-.2-.4-.5-.7-1.3-.7h-.3c-6.1.5-11 17-11.1 30.4 0 7.5 1.8 10.7 2.8 10.7.7 0 6.9-1.2 9.5-26.3"/><path fill="#ea5858" d="M350.7 81.7c6.2 0 10.1 3.4 10.5 9.4.3 2.6-.7 5.1-2.7 7.3-2.1 2.2-5 3.6-8 3.8-.5 0-.9.1-1.4.1-6 0-10.1-3.2-10.6-8.4-.3-2.9.9-6 3.2-8.4 2.1-2.2 4.8-3.5 7.6-3.7.5-.1 1-.1 1.4-.1zM337.8 127.3c4.4 3.3-4.2 10-11.3 10-1.7 0-3.3-.4-4.6-1.3-13.1-8.9-29.2-10.8-44.9-10.8h-1.9c-18.1.2-36.3 2-54 5.6-9.6 2-19.9 4.9-29.2 7.8-3.7 21.3-7.2 42.8-10.8 64.1-.5 3-9.1 7.3-13.7 7.3-1.5 0-2.6-.5-2.8-1.6-3.9-19.5-14.5-37.6-30-50.1-6.2 1.9-12.4 3.7-18.7 5.2-14.3 3.5-29.6 7.4-44.7 7.4-10.7 0-21.2-2-31-7.5-13.5-7.6.7-18.4 8.2-22.1 11.4-5.6 23.7-9.2 36.3-10.5 3.1-.3 6.3-.5 9.4-.5 18.7 0 37.6 5.3 52.7 16.4 10-3.5 19.9-7.2 29.9-10.8l2.8-13.7 2.1-12.1c-3.4 4.1-7.3 5.9-10.4 6.1-.5 0-.9.1-1.4.1-4.2 0-7.8-1.6-10.4-4.6-7.6-8.8-6.9-29.8 1.8-53.4l.4-1 1.1-.3c4.3-1.3 7.6-2 10-2.2h1.2c2.1 0 3.6.5 4.4 1.6 1.3 1.6.6 3.8 0 5.3-8.3 20.9-8.2 37.5-4.9 41.4.2.2.5.6.9.6.6 0 5.8-1.4 9.8-33.6l.1-.8.7-.5c4.1-3 8.8-5 12.5-5.3h.9c1.8 0 3.3.5 4.3 1.4.7.7 1.5 1.9 1.2 3.9l-4.2 27.3c0 .4-.9 7.2-4.4 26.4l-1.5 8.1.8-.3c24-7.5 48.7-12.4 73.8-14.1 7.6-.5 15.6-1 23.5-1 16.4 0 33 2.3 46 12.1zm-226 29.5c5.2-1 10.4-2.3 15.5-3.7-.8-.5-1.7-1.1-2.5-1.5-11.2-6.5-23.7-10.5-36.6-11.3-1.1-.1-2.2-.1-3.4-.1-9.6 0-20.3 2.4-28.7 6.9-1.8.9-4.8 3.1-4.8 5.4-.1 2.7 2.6 4.2 4.7 4.8 5.8 1.8 8.3 1.7 18.3 2.2 2.5.1 5.1.2 7.6.2 10 0 20.1-1 29.9-2.9m59.1 16.3c1.6-9.5 3.4-19.5 5-29-7.4 2.6-15.1 5.5-22.5 8.1 6.7 6 12.9 13.3 17.5 20.9"/><path fill="#ea5858" d="M366.5 0c2.5 0 4.3.5 5.4 1.6.7.7 1.4 1.9 1 3.8-1.1 6.6-13.1 62.9-13.7 65.3v.2l-.1.2c-1 2.3-3.5 3.9-6.3 4.1h-.7c-2.3 0-4.4-.9-5.9-2.5l-.5-.5 4.6-67.5.8-.6c2.4-1.6 8.9-3.8 13.8-4.2.6.1 1.1.1 1.6.1z"/></g></svg>