<svg xmlns="http://www.w3.org/2000/svg" viewBox="0 0 378.4 215.7" enable-background="new 0 0 378.4 215.7"><g opacity=".16"><path d="M95.4 66.4c0 .1 0 .1 0 0 .1.1.1.1 0 0zM140.6 104.5l-.1-.1-2.5-2.5c-.8-.9-2.1-1.4-3.6-1.4h-.5c-1.4.1-2.7.6-3.7 1.4l-.5.3-.2.5c-3.6 8.1-6.4 10.1-8.5 10.7-1.2-4.3-1.8-15.2 4.7-42.7l.2-.9-.6-.6-2.6-2.6c-2.9-3-6.3-4.5-9.6-4.5h-.8c-3.1.2-5.8 2-7.3 4.6-2.6 4.7-5 9.1-7.5 13.9.6-2.7 1.2-5.2 1.6-7.5.3-1.6-.1-3-1.1-4l-2.5-2.5s0 .1.1.1l-.1-.1-.1-.1c-1-1-2.6-1.5-4.4-1.5h-.8c-1.6.1-3.3.6-5 1.4L79.6 69c-.5.2-1.1.4-1.6.6.4-4.2.5-8.1.5-11.7 0-14.1-3.6-25.2-9.7-31.3L66.2 24c.1.1.1.2.2.2-3.3-3.4-7.4-5.3-12-5.3-.4 0-.9 0-1.3.1-7.4.6-13.9 4.7-18 11.3C24.6 33.6 2.8 58.7 2.7 97.5c-.1 20.3 4.8 30.9 10.5 36.3l-.5-.5 2.6 2.6c4.8 4.8 10.3 5.8 14.2 5.8.6 0 1.2 0 1.7-.1 8.6-.7 18.2-6.7 26.3-16.5 6.4-7.7 14.8-21.3 18.8-42.6.2-.1.3-.1.5-.2-2.1 15.7-3.5 30.5-3.7 38.4 0 1.8.6 3.3 1.8 4.4l-.3-.3 2.6 2.6.3.3c.8.7 2.3 1.5 4.7 1.5h.9c1.8-.2 4-.7 6.4-1.7l.8-.3.3-.8c2.3-5.6 4.6-10.8 6.8-15.8 1.3-2.9 2.6-5.7 3.8-8.4.4 8.6 2.4 15 6.1 18.6l2.4 2.4.2.2c2.2 2.1 5 3.2 8.2 3.2h1.2c10.6-.8 18.9-10.1 21.7-18.9.6-1.2.4-2.3-.4-3.2zM35.2 126.8h-.3c-1.1 0-2.1-.4-3.2-1.1-4-5.3-7.1-15.9-7.1-30 0-9.5 1.8-22.6 5.5-34.5.9 6.9 3.2 12.3 6.8 16l.5.5c-.1 0-.1-.1-.2-.2l2.6 2.6c3.8 3.8 9 5.9 15.5 6.1-4.1 25.9-13 40-20.1 40.6zm21.9-55.6c-1.9-.6-3.6-1.6-5.1-2.8-4-5-6-12.8-5.9-23.5 0-5.8 2.1-8.6 4-8.8h.2c.7 0 1.5.3 2.4.9 2.6 3.6 5 10.3 4.9 20.7 0 4.6-.3 8.9-.5 13.5zM339.4 89l-.1-.1-2.6-2.6.1.1c-.8-.9-2.1-1.4-3.6-1.4h-.5c-1.3.1-2.7.6-3.7 1.3l-.5.3-.2.5c-4 9-7.1 10.6-9.3 10.8-.9-3.7-.3-11.5 3.8-24.4 1.7-5.6.8-8.3-.5-9.6l-.1-.1c.5-3.5-.4-6.4-2.5-8.6l-2.6-2.6c-2.8-2.9-7.3-3.9-11-3.9h-1.5c-5.8.5-10.9 2.5-15.1 5.5-.3.1-.7.2-1 .4-2.7 1.5-9.3 2.6-11.6 2.8h-.9c-2.6 0-4.6-.9-6.2-2.1-1.1-1.5-1.9-3-2.3-3.8l-.7-1.4-2.6-2.6-1.5.1c-5.2.4-9.9 4.3-11.4 9.4 0 .1-.1.2-.1.4l-.3-.3-.1-.1c-.1-.2-.2-.4-.4-.5 0 0-.1 0-.1-.1l-2.5-2.5c-.7-.7-1.9-1.5-4.2-1.5h-.9c-3.5.3-8.2 2.1-11.9 4.7l-.8.7c-.7.4-1.5.9-2.2 1.3-1.9 1.1-16 8.3-13.9 10.4l2.6 2.6c.1.1.3.3.6.3 1.3.4 2.7.6 4 .6 1.6 0 3.2-.2 4.8-.6.5-.1 1.1-.2 1.6-.3-2.4 14.8-3.9 31.5 3.4 38.6l2.6 2.6c2.3 2.3 5.4 3.4 9.2 3.4.5 0 1 0 1.5-.1 5.7-.4 11.2-3.1 15.7-7.6 6.7-6.7 11.2-17.2 12.6-28.9.3-2.7.5-5.5.5-8.3 1.1-.1 2.3-.4 3.5-.7-2.1 5.3-3.1 11-3.2 16.5 0 8.7 2.2 15.1 6.3 18.8l-.4-.4 2.6 2.6c2.6 2.6 6.1 4 10.2 4 .5 0 1 0 1.5-.1 5.3-.4 9.3-2.6 13-7.1l2.2 2.2c2.4 2.4 5.5 3.1 8.3 3.1.5 0 .9 0 1.4-.1 10.6-1 18.9-10.3 21.7-19 .3-.6.1-1.8-.7-2.6zm-90.3 13.3c-1 1-2 1.7-3 2.1-1.3-5.9-1.1-20.7 4.8-42.3.3 1.8 1.2 3.4 2.5 4.7h-.1l2.2 2.2c1.3 14.9-1.2 27.9-6.4 33.3zm52.5-29.4l-.1-.1 1.6 1.6c-2.2 20.5-6.8 24.7-8.6 25.5-.5-1.7-1-4.3-1-7.9 0-12.8 4.6-28.5 10.3-30.2-.2 2-1.3 4.5-2.9 6l-.5.5v.7c-.1 1.8.3 3 1.2 3.9zM363.8 104c-2.1 2.2-5 3.6-8 3.8h-1.4c-3.4 0-6.2-1-8.1-2.9l-2.6-2.6c-1.4-1.4-2.3-3.3-2.5-5.5-.3-2.9.9-6 3.2-8.4 2.1-2.2 4.8-3.5 7.6-3.7h1.4c3.4 0 6.1 1 7.9 3l2.5 2.5c1.6 1.6 2.5 3.8 2.8 6.6.2 2.5-.7 5.1-2.8 7.2zM343.6 133.3l-2.6-2.6.2.2c-.2-.2-.4-.4-.6-.5-13.1-9.8-29.6-12.1-46.2-12.1-8 0-16 .5-23.5 1-24.2 1.6-48.1 6.2-71.2 13.3l.8-4.4c3.5-19.1 4.4-26 4.4-26.3l4.2-27.3c.3-1.9-.4-3.1-1.1-3.8l-2.5-2.5-.2-.2c-1-.9-2.4-1.4-4.3-1.4h-.9c-3.7.3-8.3 2.3-12.5 5.3l-.7.5-.1.8c-3.3 27.1-7.5 32.4-9.2 33.3-2-6.2-1.2-21.1 6-39.2.6-1.5 1.3-3.7 0-5.3-.1-.1-.1-.2-.2-.2l-2.5-2.5.1.1c-.8-1-2.3-1.6-4.4-1.6h-1.2c-2.4.2-5.7.9-10 2.3l-1.1.3-.3 1c-8.6 23.6-9.3 44.6-1.8 53.4l.9.9-.1-.1 2.5 2.5c2.5 2.5 5.8 3.8 9.7 3.8.5 0 .9 0 1.4-.1 2.1-.2 4.5-1 6.8-2.7l-1 6.1-2.8 13.7c-10 3.6-19.9 7.3-29.9 10.8-15.1-11.1-34-16.4-52.7-16.4-3.1 0-6.3.2-9.4.5-12.7 1.2-25 4.8-36.3 10.5-6.8 3.4-18.9 12.3-11.6 19.6l2.6 2.6c.8.8 1.9 1.7 3.3 2.5 9.9 5.6 20.4 7.5 31 7.5 15.1 0 30.4-4 44.7-7.4 3.2-.8 6.3-1.6 9.4-2.5 3.1-.9 6.2-1.8 9.3-2.8 1.8 1.5 3.6 3.1 5.3 4.7 11.2 11.8 18.9 26.8 22.1 42.8.1.4.3.7.5.9l2.6 2.6c.5.5 1.3.7 2.3.7 4.6 0 13.2-4.3 13.7-7.3 3.6-21.3 7.2-42.8 10.8-64.1 9.3-3 19.6-5.8 29.2-7.8 17.8-3.6 35.9-5.5 54-5.6h1.9c15.6 0 31.7 1.9 44.9 10.8 1.3.9 2.9 1.3 4.6 1.3 6.8 0 15.1-6.2 11.7-9.6zm-229.1 26.5c-9.9 1.9-19.9 2.9-30 2.9-2.5 0-5.1-.1-7.6-.2-9.9-.5-12.4-.4-18.3-2.2-.6-.2-1.2-.4-1.8-.7-.2-.4-.3-.9-.3-1.5 0-2.3 3.1-4.5 4.8-5.4 8.5-4.5 19.1-6.9 28.7-6.9 1.1 0 2.3 0 3.4.1 12.4.8 24.5 4.4 35.3 10.5-4.6 1.3-9.3 2.4-14.2 3.4zm55.7 11.1c.2.2.3.4.5.6.1.1.1.2.2.2-.3-.2-.5-.5-.7-.8zm3.6 4.1c-3.3-4.8-7.1-9.4-11.2-13.6l-2.6-2.6c.2.2.4.4.6.7l-1.8-1.8c6.3-2.2 12.8-4.6 19.1-6.8-1.3 8-2.7 16.2-4.1 24.1zM378.3 11c-1.1 6.6-13.1 62.9-13.6 65.3v.2l-.1.2c-1 2.3-3.5 3.9-6.3 4.1h-.7c-2.2 0-4.3-.8-5.8-2.3l-2.5-2.5.1.1c-.1-.1-.2-.1-.2-.2l-.2-.2-.5-.5 4.6-67.5.8-.6c2.5-1.6 8.9-3.8 13.8-4.2.5 0 1-.1 1.5-.1 2.5 0 4.3.5 5.4 1.6l2.6 2.6c.7.9 1.4 2.1 1.1 4z"/></g><g fill="#C5CBD2"><path d="M92.8 63.6c.1.1.1.1 0 0 .1.1.1.1 0 0zM138 101.7l-.1-.1-2.5-2.5c-.8-.9-2.1-1.4-3.6-1.4h-.5c-1.4.1-2.7.6-3.7 1.4l-.5.3-.2.5c-3.6 8.1-6.4 10.1-8.5 10.7-1.2-4.3-1.8-15.2 4.7-42.7l.2-.9-.6-.6-2.6-2.6c-2.9-3-6.3-4.5-9.6-4.5h-.8c-3.1.2-5.8 2-7.3 4.6-2.6 4.7-5 9.1-7.5 13.9.6-2.7 1.2-5.2 1.6-7.5.3-1.6-.1-3-1.1-4l-2.5-2.5s0 .1.1.1l-.1-.1-.1-.1c-1-1-2.6-1.5-4.4-1.5h-.8c-1.6.1-3.3.6-5 1.4L77 66.2c-.5.2-1.1.4-1.6.6.4-4.3.6-8.2.6-11.8 0-14.1-3.6-25.2-9.7-31.3l-2.6-2.6c.1.1.1.2.2.2-3.3-3.4-7.4-5.3-12-5.3-.4 0-.9 0-1.3.1-7.4.6-13.9 4.7-18 11.3C22.1 30.8.2 55.9.1 94.7c0 20.3 4.8 30.8 10.5 36.3l-.5-.5 2.6 2.6c4.8 4.8 10.3 5.8 14.2 5.8.6 0 1.2 0 1.7-.1 8.6-.7 18.2-6.7 26.3-16.5 6.4-7.7 14.8-21.3 18.8-42.6.2-.1.3-.1.5-.2-2.1 15.7-3.5 30.5-3.7 38.4 0 1.8.6 3.3 1.8 4.4l-.3-.3 2.6 2.6.3.3c.8.7 2.3 1.5 4.7 1.5h.9c1.8-.2 4-.7 6.4-1.7l.8-.3.3-.8c2.3-5.6 4.6-10.8 6.8-15.8 1.3-2.9 2.6-5.7 3.8-8.4.4 8.6 2.4 15 6.1 18.6l2.4 2.4.2.2c2.2 2.1 5 3.2 8.2 3.2h1.2c10.6-.8 18.9-10.1 21.7-18.9.6-1.2.4-2.3-.4-3.2zM32.6 124h-.3c-1.1 0-2.1-.4-3.2-1.1-4-5.3-7.1-15.9-7.1-30 0-9.5 1.8-22.6 5.5-34.5.9 6.9 3.2 12.3 6.8 16l.5.5c-.1 0-.1-.1-.2-.2l2.6 2.6c3.8 3.8 9 5.9 15.5 6.1-4.1 25.9-13 40-20.1 40.6zm21.9-55.6c-1.9-.6-3.6-1.6-5.1-2.8-4-5-6-12.8-5.9-23.5 0-5.8 2.1-8.6 4-8.8h.2c.7 0 1.5.3 2.4.9 2.6 3.6 5 10.3 4.9 20.7 0 4.6-.2 8.9-.5 13.5zM336.9 86.2l-.1-.1-2.6-2.6.1.1c-.8-.9-2.1-1.4-3.6-1.4h-.5c-1.3.1-2.7.6-3.7 1.3l-.5.3-.2.5c-4 9-7.1 10.6-9.3 10.8-.9-3.7-.3-11.5 3.8-24.4 1.7-5.6.8-8.3-.5-9.6l-.1-.1c.5-3.5-.4-6.4-2.5-8.6l-2.6-2.6c-2.8-2.9-7.3-3.9-11-3.9h-1.5c-5.8.5-10.9 2.5-15.1 5.5-.3.1-.7.2-1 .4-2.7 1.5-9.3 2.6-11.6 2.8h-.9c-2.6 0-4.6-.9-6.2-2.1-1.1-1.5-1.9-3-2.3-3.8l-.7-1.4-2.6-2.6-1.5.1c-5.2.4-9.9 4.3-11.4 9.4 0 .1-.1.2-.1.4l-.3-.3-.1-.1c-.1-.2-.2-.4-.4-.5 0 0-.1 0-.1-.1l-2.5-2.5c-.7-.7-1.9-1.5-4.2-1.5h-.9c-3.5.3-8.2 2.1-11.9 4.7l-.8.7c-.7.4-1.5.9-2.2 1.3-1.9 1.1-16 8.3-13.9 10.4l2.6 2.6c.1.1.3.3.6.3 1.3.4 2.7.6 4 .6 1.6 0 3.2-.2 4.8-.6.5-.1 1.1-.2 1.6-.3-2.4 14.8-3.9 31.5 3.4 38.6l2.6 2.6c2.3 2.3 5.4 3.4 9.2 3.4.5 0 1 0 1.5-.1 5.7-.4 11.2-3.1 15.7-7.6 6.7-6.7 11.2-17.2 12.6-28.9.3-2.7.5-5.5.5-8.3 1.1-.1 2.3-.4 3.5-.7-2.1 5.3-3.1 11-3.2 16.5 0 8.7 2.2 15.1 6.3 18.8l-.4-.4 2.6 2.6c2.6 2.6 6.1 4 10.2 4 .5 0 1 0 1.5-.1 5.3-.4 9.3-2.6 13-7.1l2.2 2.2c2.4 2.4 5.5 3.1 8.3 3.1.5 0 .9 0 1.4-.1 10.6-1 18.9-10.3 21.7-19 .3-.6 0-1.8-.7-2.6zm-90.4 13.3c-1 1-2 1.7-3 2.1-1.3-5.9-1.1-20.7 4.8-42.3.3 1.8 1.2 3.4 2.5 4.7h-.1l2.2 2.2c1.3 14.9-1.2 27.9-6.4 33.3zM299 70.1l-.1-.1 1.6 1.6c-2.2 20.5-6.8 24.7-8.6 25.5-.5-1.7-1-4.3-1-7.9 0-12.8 4.6-28.5 10.3-30.2-.2 2-1.3 4.5-2.9 6l-.5.5v.7c-.1 1.8.3 3 1.2 3.9zM361.3 101.2c-2.1 2.2-5 3.6-8 3.8h-1.4c-3.4 0-6.2-1-8.1-2.9l-2.6-2.6c-1.4-1.4-2.3-3.3-2.5-5.5-.3-2.9.9-6 3.2-8.4 2.1-2.2 4.8-3.5 7.6-3.7h1.4c3.4 0 6.1 1 7.9 3l2.5 2.5c1.6 1.6 2.5 3.8 2.8 6.6.2 2.5-.8 5.1-2.8 7.2zM341 130.5l-2.6-2.6.2.2c-.2-.2-.4-.4-.6-.5-13.1-9.8-29.6-12.1-46.2-12.1-8 0-16 .5-23.5 1-24.2 1.6-48.1 6.2-71.2 13.3l.8-4.4c3.5-19.1 4.4-26 4.4-26.3l4.2-27.3c.3-1.9-.4-3.1-1.1-3.8l-2.5-2.5-.2-.2c-1-.9-2.4-1.4-4.3-1.4h-.9c-3.7.3-8.3 2.3-12.5 5.3l-.7.5-.1.8c-3.3 27.1-7.5 32.4-9.2 33.3-2-6.2-1.2-21.1 6-39.2.6-1.5 1.3-3.7 0-5.3-.1-.1-.1-.2-.2-.2l-2.5-2.5.1.1c-.8-1-2.3-1.6-4.4-1.6h-1.2c-2.4.2-5.7.9-10 2.3l-1.1.3-.3 1c-8.6 23.6-9.3 44.6-1.8 53.4l.9.9-.1-.1 2.5 2.5c2.5 2.5 5.8 3.8 9.7 3.8.5 0 .9 0 1.4-.1 2.1-.2 4.5-1 6.8-2.7l-1 6.1-2.8 13.7c-10 3.6-19.9 7.3-29.9 10.8-15.1-11.1-34-16.4-52.7-16.4-3.1 0-6.3.2-9.4.5-12.7 1.2-25 4.8-36.3 10.5-6.8 3.4-18.9 12.3-11.6 19.6l2.6 2.6c.8.8 1.9 1.7 3.3 2.5 9.9 5.6 20.4 7.5 31 7.5 15.1 0 30.4-4 44.7-7.4 3.2-.8 6.3-1.6 9.4-2.5 3.1-.9 6.2-1.8 9.3-2.8 1.8 1.5 3.6 3.1 5.3 4.7 11.2 11.8 18.9 26.8 22.1 42.8.1.4.3.7.5.9l2.6 2.6c.5.5 1.3.7 2.3.7 4.6 0 13.2-4.3 13.7-7.3 3.6-21.3 7.2-42.8 10.8-64.1 9.3-3 19.6-5.8 29.2-7.8 17.8-3.6 35.9-5.5 54-5.6h1.9c15.6 0 31.7 1.9 44.9 10.8 1.3.9 2.9 1.3 4.6 1.3 6.8 0 15.1-6.2 11.7-9.6zM112 157c-9.9 1.9-19.9 2.9-30 2.9-2.5 0-5.1-.1-7.6-.2-9.9-.5-12.4-.4-18.3-2.2-.6-.2-1.2-.4-1.8-.7-.2-.4-.3-.9-.3-1.5 0-2.3 3.1-4.5 4.8-5.4 8.5-4.5 19.1-6.9 28.7-6.9 1.1 0 2.3 0 3.4.1 12.4.8 24.5 4.4 35.3 10.5-4.6 1.3-9.4 2.4-14.2 3.4zm55.6 11.1c.2.2.3.4.5.6.1.1.1.2.2.2-.3-.2-.5-.5-.7-.8zm3.7 4.1c-3.3-4.8-7.1-9.4-11.2-13.6l-2.6-2.6c.2.2.4.4.6.7l-1.8-1.8c6.3-2.2 12.8-4.6 19.1-6.8-1.4 8-2.8 16.2-4.1 24.1zM375.7 8.2c-1.1 6.6-13.1 62.9-13.6 65.3v.2l-.1.2c-1 2.3-3.5 3.9-6.3 4.1h-.7c-2.2 0-4.3-.8-5.8-2.3l-2.5-2.5.1.1c-.1-.1-.2-.1-.2-.2l-.2-.2-.5-.5L350.5 5l.8-.6c2.5-1.6 8.9-3.8 13.8-4.2.5 0 1-.1 1.5-.1 2.5 0 4.3.5 5.4 1.6l2.6 2.6c.7.8 1.5 2 1.1 3.9z"/></g><g><path fill="#fff" d="M135.3 98.9c.8.9 1 2 .6 3.2-2.8 8.8-11.2 18-21.7 18.8H113c-3.2 0-5.9-1.1-8.2-3.2-4.8-4.6-6.9-14.1-6-27-4.3 9-8.8 19-13.4 30.1l-.3.8-.9.4c-2.4 1-4.6 1.5-6.4 1.7h-.9c-2.4 0-3.8-.8-4.7-1.5-1.2-1-1.8-2.6-1.8-4.4.2-8.6 1.8-25.2 4.2-42.2-1.3.5-2.5 1-3.7 1.4-4 21.3-12.4 34.9-18.8 42.6-8.1 9.8-17.7 15.8-26.3 16.5-.5 0-1.1.1-1.7.1-8.5 0-24.3-4.9-24.2-41.6.1-38.8 21.9-63.9 32.4-67.3 4.1-6.6 10.6-10.7 18-11.3.5 0 .9-.1 1.3-.1 12.8 0 21.6 14.7 21.5 36.4 0 4.7-.3 9.7-.9 15.3 1.5-.4 3-.9 4.5-1.5l5.6-2.6c1.7-.8 3.4-1.3 5-1.4h.8c1.8 0 3.4.5 4.4 1.5 1.1 1 1.5 2.5 1.2 4.1-.8 4.3-2 9.5-3.4 15-.7 2.8-1.4 5.8-2.1 8.7 5-11.1 9-18.8 13.9-27.5 1.5-2.6 4.2-4.3 7.3-4.6h.8c3.3 0 6.7 1.6 9.6 4.5l.6.6-.2.9c-8.9 37.3-4.5 44.2-3.6 45.1.1.1.3.3.5.3 2-.2 5.2-1.4 9.4-10.8l.2-.5.5-.3c1.1-.8 2.4-1.2 3.7-1.4h.5c1.8-.2 3.1.3 3.9 1.2zM32.5 123.7c7.3-.6 16.6-15.5 20.5-43.1h-1.6c-7.3 0-13.1-2.2-17.2-6.5-4.9-5.1-7.3-13.3-7.3-24.3v-.5c-5.1 13.5-7.5 29.5-7.6 40.7-.1 20.4 6.5 33.7 12.9 33.7.1.1.2.1.3 0m21.9-55.5c.3-4.6.5-8.9.5-13.5 0-17.3-6.3-24.2-9.9-24.2h-.2c-1.9.2-4 3-4 8.8-.1 16.2 4.5 25.9 13.6 28.9M334.1 83.4c.8.8 1 2 .6 3.2-2.8 8.7-11.1 18-21.7 19-.5 0-.9.1-1.4.1-3.6 0-7.6-1.2-10.2-5.7-3.8 4.8-7.9 7-13.3 7.5-.5 0-1 .1-1.5.1-10.1 0-16.1-8.3-16-22.5 0-6.9 1.7-14.1 4.8-20.4-2.8.9-5.6 1.6-7.8 1.9.1 14.9-4.9 29-13.1 37.2-4.5 4.5-9.9 7.1-15.7 7.6-.5 0-1 .1-1.6.1-3.8 0-6.8-1.1-9.2-3.4-7.9-7.6-5.6-26.3-2.9-41.9-3.2.7-6.4 1.6-9.6 1.6-1.4 0-2.7-.2-4-.6-4.6-1.5 11.3-9.5 13.3-10.8.7-.4 1.5-.9 2.2-1.3l.8-.7c3.8-2.6 8.5-4.4 11.9-4.7h.9c2.3 0 3.5.8 4.2 1.5.2.2.3.3.4.5 1 1 1.1 2 .6 3.1 0 .4-.1.7-.2 1.1-7.8 28.2-6.1 45-3.7 46 1.4-.1 2.9-.9 4.2-2.3 5.2-5.5 7.7-18.8 6.4-33.9-4-2.3-5.7-6.6-4.3-11.3 1.6-5.1 6.3-9 11.4-9.4l1.5-.1.7 1.4c1 2.1 4.1 8.5 11.1 8.5h.9c2.3-.2 8.8-1.3 11.5-2.8.4-.2.7-.3 1.1-.4 4.3-3 9.3-5 15.2-5.5.5 0 1-.1 1.5-.1 3.7 0 8.1 1 11 3.9 2.2 2.2 3.1 5.2 2.5 8.6 1.4 1.3 2.5 4 .7 9.7-5.1 16.1-4.8 24.2-2.9 26.5.4.4.8.6 1.4.6 2.2-.2 5.4-1.5 9.6-10.8l.2-.5.5-.3c1.1-.8 2.4-1.2 3.7-1.3h.5c1.7-.4 3 .1 3.8 1zm-33.6-12.6c-2.1-.8-2.9-2.3-2.8-4.8v-.7l.5-.5c2.2-2.2 3.5-6.3 2.7-8.1-.2-.4-.5-.7-1.3-.7h-.3c-6.1.5-11 17-11.1 30.4 0 7.5 1.8 10.7 2.8 10.7.7 0 6.9-1.2 9.5-26.3"/><path fill="#fff" d="M350.7 81.7c6.2 0 10.1 3.4 10.5 9.4.3 2.6-.7 5.1-2.7 7.3-2.1 2.2-5 3.6-8 3.8-.5 0-.9.1-1.4.1-6 0-10.1-3.2-10.6-8.4-.3-2.9.9-6 3.2-8.4 2.1-2.2 4.8-3.5 7.6-3.7.5-.1 1-.1 1.4-.1zM337.8 127.3c4.4 3.3-4.2 10-11.3 10-1.7 0-3.3-.4-4.6-1.3-13.1-8.9-29.2-10.8-44.9-10.8h-1.9c-18.1.2-36.3 2-54 5.6-9.6 2-19.9 4.9-29.2 7.8-3.7 21.3-7.2 42.8-10.8 64.1-.5 3-9.1 7.3-13.7 7.3-1.5 0-2.6-.5-2.8-1.6-3.9-19.5-14.5-37.6-30-50.1-6.2 1.9-12.4 3.7-18.7 5.2-14.3 3.5-29.6 7.4-44.7 7.4-10.7 0-21.2-2-31-7.5-13.5-7.6.7-18.4 8.2-22.1 11.4-5.6 23.7-9.2 36.3-10.5 3.1-.3 6.3-.5 9.4-.5 18.7 0 37.6 5.3 52.7 16.4 10-3.5 19.9-7.2 29.9-10.8l2.8-13.7 2.1-12.1c-3.4 4.1-7.3 5.9-10.4 6.1-.5 0-.9.1-1.4.1-4.2 0-7.8-1.6-10.4-4.6-7.6-8.8-6.9-29.8 1.8-53.4l.4-1 1.1-.3c4.3-1.3 7.6-2 10-2.2h1.2c2.1 0 3.6.5 4.4 1.6 1.3 1.6.6 3.8 0 5.3-8.3 20.9-8.2 37.5-4.9 41.4.2.2.5.6.9.6.6 0 5.8-1.4 9.8-33.6l.1-.8.7-.5c4.1-3 8.8-5 12.5-5.3h.9c1.8 0 3.3.5 4.3 1.4.7.7 1.5 1.9 1.2 3.9l-4.2 27.3c0 .4-.9 7.2-4.4 26.4l-1.5 8.1.8-.3c24-7.5 48.7-12.4 73.8-14.1 7.6-.5 15.6-1 23.5-1 16.4 0 33 2.3 46 12.1zm-226 29.5c5.2-1 10.4-2.3 15.5-3.7-.8-.5-1.7-1.1-2.5-1.5-11.2-6.5-23.7-10.5-36.6-11.3-1.1-.1-2.2-.1-3.4-.1-9.6 0-20.3 2.4-28.7 6.9-1.8.9-4.8 3.1-4.8 5.4-.1 2.7 2.6 4.2 4.7 4.8 5.8 1.8 8.3 1.7 18.3 2.2 2.5.1 5.1.2 7.6.2 10 0 20.1-1 29.9-2.9m59.1 16.3c1.6-9.5 3.4-19.5 5-29-7.4 2.6-15.1 5.5-22.5 8.1 6.7 6 12.9 13.3 17.5 20.9"/><path fill="#fff" d="M366.5 0c2.5 0 4.3.5 5.4 1.6.7.7 1.4 1.9 1 3.8-1.1 6.6-13.1 62.9-13.7 65.3v.2l-.1.2c-1 2.3-3.5 3.9-6.3 4.1h-.7c-2.3 0-4.4-.9-5.9-2.5l-.5-.5 4.6-67.5.8-.6c2.4-1.6 8.9-3.8 13.8-4.2.6.1 1.1.1 1.6.1z"/></g><g stroke="#000" stroke-width="3" stroke-miterlimit="10" opacity=".16"><path d="M345.1 166l.5.5c.5.5 1.4 1.5 2.2 1.1.4-.2.9-2 1.1-2.5.4-.9.8-1.9 1.2-2.8.8-1.9 1.6-3.8 2.4-5.8.3-.9.7-1.8 1-2.7.4-.9 1.1-2 .4-2.8-.1-.1.3.3 0 0s-.6-.6-.9-1l.2.2c-.9-.9-2.1-1.9-3.3-2.2-.8 3.1-1.6 6.3-2.4 9.4l-1.2 4.2c-.5 1-1.9 3.9-1.2 4.4zM342.2 169.5c-1.4 1.5-2.9 3-4.5 4.3-1.5 1.2-2.9 2.2-4.7 1.1-.3-.2-.8-.6-1-.9-.5-.8 0-.8.5-1.5.6-.7 1.1-1.6 1.5-2.4.3-.7 1-1.8 1-2.5-2.3 2.7-4 6.1-5.2 9.4-.7 2-1.3 4-2 6.1-.4 1.2-.4 2.8-1.6 3.3-1 .4-4.3 2.3-3.9 0 .3-1.9 1.3-3.9 2-5.7.7-1.9 1.4-3.9 2.1-5.8-.9.8-2.5 2.6-3.9 2.2-.7-.2-2.1-1.5-2.1-2.2-.8 1-1.7 2.3-2.8 2.9-.9.5-1.6.1-2.3-.6-.6-.6-1.2-1.1-1.1-2 .2-1.4.8-2.7 1.2-4 .2-.7.5-1.4.7-2 .2-.6.4-1.7.8-2.2.3-.4.1-.3.8-.2.7.1 1.5.3 2.1.7.5.3 1.1.7 1 1.2 0 .5-.5 1.2-.7 1.6-.3.8.4-.4.1.4 1.3-1.6 1.5-1.6 2.3-3.5.5-1.4.5-1.8 2.1-.8.6.4 1.6 1 1.6 1.7s-.6 1.8-.8 2.4c-.3.9-.7 1.9-.9 2.9 1-.9 2.1-1.7 2.9-2.7 1-1.2 1.3-3.1 1.8-4.6.4-1.4.5-1.7 1.9-.8.5.4 1.2.9 1.6 1.5.6-.8 1.8-2.4 2.9-2.6.9-.1 1.6.8 2.2 1.3.5.5.9.8 1 1.5.1 1.4.2 1.6-.4 2.8 1.1-.9 1.3-.5 2.2-1.6.7.4 1.2.9 1.6 1.3zM346.3 169.8c-.4-.4-1-.7-1.5-.9-.9-.4-1.2-.4-1.7.4-.3.6-1.1 1.7-1 2.4.1.4.4.7.7 1 .8.6 2.3 1.4 3.1.6.4-.4 1.2-1.8 1.2-2.4 0-.5-.5-.7-.8-1.1zM311.9 165.2c-.7 2.4-2.4 1.3-4.1 2.1-1 .4-1.3 2.7-1.7 3.8-.6 1.7-1.1 3.4-1.4 5.1.8-.6 1.5-1.4 2.3-2.1.3-.3.6-.8.9-1 .6-.3.1-.4.8 0 .2.2 1 .8 1 1 .1.4-1.3 1.6-1.6 1.9-1.1 1.1-3.2 3.8-4.8 3.9-1.3.1-2.2-1.3-3-2.1-1 1-2.6 3-4.1 3.2-1 .1-1.8-.8-2.4-1.5l-.1-.1c-.7-.6-.1-1.6.1-2.3.3-1.1.7-2.3 1-3.4.3-1 .7-2 1.1-3 .4-1 .7-.9 1.7-.3.7.4 1.8 1.2 1.8 2 0 .7-.5 1.6-.8 2.3l-.6 1.6c1.2-1.2 2.4-1.3 2.9-2.9l1.8-5.4c-.8.1-1 .3-1.6-.3-.7.9-2.2.1-2.9-.6-1-.9-.4-1.9.2-3 .3-.6.5-1 1.1-1 .6 0 1.4.5 1.9.9.6.5 1.3 1.1.5 1.9.4-.1 1.2-.1 1.5-.3.5-.4.8-2 1.1-2.6.4-.9.7-1.8 1.4-2.5.8-.7 1.8-1.2 2.8-1.7.7-.4 2-.8 2.1.4 0 .4-.8 1.8-1 2.2-.5 1.1-.9 2.2-1.3 3.3.7-.1 1.6-.5 2.3-.4.3 0 1.3.4 1.1.9zM288 176.4c-.1-.1-.2-.3-.4-.4-.6-.4-.6 0-1.1.5-.9.9-1.9 1.9-3 2.7.2-1.1.7-2.2 1.1-3.3.2-.7.9-1.8.5-2.5-.3-.5-1.1-1-1.5-1.3-1.1-.6-1.6-.7-2.6.1 1.5-1.9 2.9-3.9 4.2-5.9 1-1.7 2.7-4 2.8-6 .1-1.1-1.3-2.2-2.2-2.7-1.1-.7-1.8-.3-2.7.6-.7.7-1.3 1.5-1.8 2.4-2.6 3.9-4.5 8.3-6.1 12.8-.5 1.3-.9 2.5-1.3 3.8-.3 1.1-1 1.7-1.8 2.5-1.3 1.3-3.3 3-5.3 3 .1-1.5.6-3.3 1.4-4.6-.2.4.2 1 .7 1.2.8.3 2.2-.7 2.8-1.2.9-.7 1.3-1.2.7-2.2-.4-.6-1-1.2-1.6-1.6-1.1-.9-1.9-.8-3.2-.2-1.2.6-2.2 1.4-3 2.4-.8 1-1.5 2.1-1.9 3.3-.5 1.3-1.4 1.9-2.3 2.9 0-1.2 1-2.8 1.4-4 .3-1 .2-1.3-.6-2-.6-.5-1.5-1.4-2.4-1.3-1.1.2-2.2 1.9-2.8 2.7-.8-.8-1.7-1.3-2.8-1.8-.6-.3-.5-.3-.8.1-.2.2-.3.9-.4 1.2l-.9 2.7c-.7 2.4-4.3 5.7-7 5.7 0-.9.4-.9 1.1-1.4.6-.3 1.1-.7 1.6-1.1 1-.7 2.3-1.6 3-2.7 1-1.5-.7-3.6-2.2-4.1-2-.6-4.6 1.6-5.8 3.1-.8 1-1.4 2.1-1.8 3.4-.3 1.1-1.4 2-2.3 2.7.4-1.1 1.8-3.6 1.3-4.7-.6-1.2-2.4-1.4-3.3-2.2-.3-.3-.4-.5-.7-.9-.3-.4-.7-.7-1.1-.9-.7-.3-.9.1-1.6.4-.9.5-1.9.9-2.8 1.3 2.8-4.9 6-9.5 8.7-14.4.8-1.5 3.8-1.9 5.3-2.3 3.1-.9 6.3-1.6 9.5-1.4-.2-1.1-.6-2.6-1.3-3.6-.6-.9-1.1-.8-2.1-.6-2.5.4-4.9.9-7.3 1.5-5.4 1.5-10.6 3.5-15.5 6-4.5 2.3-8.7 5.1-12.3 8.7-.8.8-1.6 1.6-2.1 2.6-.9 1.5-.8 2.3.2 3.7.6.7 1.3 1.6 2.1 2.2 1.1.8 2.7.2 3.9-.2.4-.1 1.4-.3 1.6-.7.1-.2.1-.6.2-.8.2-.8.7-2 .6-2.8 0-.4.1-.3-.3-.7-.4-.4-.3-.3-.8-.2-1.3.3-1.7.8-2.9 1.3 1.9-2.6 3.7-3.9 6.3-5.8 3-2.1 6.3-4 9.7-5.5-3.3 4.6-6.6 9.3-9.4 14.2-.5.8-.6 1-1.5 1.2-.6.2-1.3.3-1.9.5-1.3.3-1.8.5-2.4 1.7-.3.6-.3 1.5.5 1.8.6.2 2.1-.4 2.7-.5-1.7 3.2-3.3 6.5-4.8 9.8-.1.2-.7 1.2-.6 1.4 0 .1.2.2.3.3.4.6.5.4 1 .3 1.1-.3 3.5-.8 4.2-1.7.4-.5.6-1.5.9-2.1.4-.9.8-1.7 1.3-2.6.8-1.6 1.6-3.2 2.5-4.7.5-.8.8-1.9 1.7-2.2.7-.3 1.6-.4 2.3-.6.6-.2 1.3-.3 1.9-.6.7-.4.6-.7 1.4-.2-.7.8-1.3 1.7-1.9 2.6-.2.3-.7.7-.8 1.1-.1.4-.1.2.2.6.6.8.8.6 1.5 0 .8-.8 1.5-1.1 2.3-2-.3 1.1-.6 1.6-.8 2.7-.1.9.4 1.3 1 1.9 2.2 1.9 4.1-.8 5.7-2.2.9 1.1 2.1 2.4 3.6 2.1 1.2-.2 2.4-.7 3.4-1.4.5-.3 1-.6 1.5-1 .3-.2.8-.9 1.2-1 .9-.3 2.4 2.9 3.8 1.8.3-.3.6-1.3.7-1.7.2-.5.5-1.1.8-1.6.6-1.1 1.2-2.1 1.9-3.2-.2 1.1-1.2 2.5-.9 3.6.1.5.7 1 1.1 1.3 2.1 1.8 4.2-.6 5.7-2.2.9 1.3 2.2 2.5 3.9 2.1 2.5-.5 4.6-2 6.4-3.7 0 1.1 2.9 2.7 3.5 2 .4-.4.5-1.6.8-2.1.3-.7.6-1.4 1-2.1.6-1.2 1.3-2.3 2.2-3.4-.4 1.3-1.7 3.9-.8 5.1.7.9 1.9 1.7 3.1 1.4 1.6-.4 3.1-2.2 4.2-3.3.4-.4 1.6-1.3 1.8-1.9-.5-.5-.8-.6-1.2-1zm-4.7-12.4c.4-.9.9-1.8 1.4-2.7-.4 1-.9 1.9-1.4 2.8v-.1c.4-.9 0 .1 0 0zm-15.1 13.9l.3-.6m-23.2 3.8c.1-.2.2-.4.3-.5.3-.4-.1.2 0 0"/></g><g fill="#AD3C42"><path d="M353.8 151.1c-.3-.3-.6-.6-.9-1l.2.2c-.9-.9-2.1-1.9-3.3-2.2-.8 3.1-1.6 6.3-2.4 9.4l-1.2 4.2c-.3.8-1.6 3.7-1 4.2l-.2-.2c.5.5 2 2.2 2.8 1.8.4-.2.9-2 1.1-2.5.4-.9.8-1.9 1.2-2.8.8-1.9 1.6-3.8 2.4-5.8.3-.9.7-1.8 1-2.7.3-.7 1.1-1.8.3-2.6 0-.1.3.3 0 0zm-8.6 15c-.1-.1.4.3.4.3-.1-.1-.2-.2-.4-.3zM342.2 169.5c-1.4 1.5-2.9 3-4.5 4.3-1.5 1.2-2.9 2.2-4.7 1.1-.3-.2-.8-.6-1-.9-.5-.8 0-.8.5-1.5.6-.7 1.1-1.6 1.5-2.4.3-.7 1-1.8 1-2.5-2.3 2.7-4 6.1-5.2 9.4-.7 2-1.3 4-2 6.1-.4 1.2-.4 2.8-1.6 3.3-1 .4-4.3 2.3-3.9 0 .3-1.9 1.3-3.9 2-5.7.7-1.9 1.4-3.9 2.1-5.8-.9.8-2.5 2.6-3.9 2.2-.7-.2-2.1-1.5-2.1-2.2-.8 1-1.7 2.3-2.8 2.9-.9.5-1.6.1-2.3-.6-.6-.6-1.2-1.1-1.1-2 .2-1.4.8-2.7 1.2-4 .2-.7.5-1.4.7-2 .2-.6.4-1.7.8-2.2.3-.4.1-.3.8-.2.7.1 1.5.3 2.1.7.5.3 1.1.7 1 1.2 0 .5-.5 1.2-.7 1.6-.3.8-.7 1.6-1 2.4 1.3-1.6 2.5-3.5 3.3-5.5.5-1.4.5-1.8 2.1-.8.6.4 1.6 1 1.6 1.7s-.6 1.8-.8 2.4c-.3.9-.7 1.9-.9 2.9 1-.9 2.1-1.7 2.9-2.7 1-1.2 1.3-3.1 1.8-4.6.4-1.4.5-1.7 1.9-.8.5.4 1.2.9 1.6 1.5.6-.8 1.8-2.4 2.9-2.6.9-.1 1.6.8 2.2 1.3.5.5.9.8 1 1.5.1 1.4-.6 3-1.3 4.2 1.1-.9 2.1-2 3.1-3 .8.4 1.3.9 1.7 1.3zM346.3 169.8c-.4-.4-1-.7-1.5-.9-.9-.4-1.2-.4-1.7.4-.3.6-1.1 1.7-1 2.4.1.4.4.7.7 1 .8.6 2.3 1.4 3.1.6.4-.4 1.2-1.8 1.2-2.4 0-.5-.5-.7-.8-1.1zM311.9 165.2c-.7 2.4-2.4 1.3-4.1 2.1-1 .4-1.3 2.7-1.7 3.8-.6 1.7-1.1 3.4-1.4 5.1.8-.6 1.5-1.4 2.3-2.1.3-.3.6-.8.9-1 .6-.3.1-.4.8 0 .2.2 1 .8 1 1 .1.4-1.3 1.6-1.6 1.9-1.1 1.1-3.2 3.8-4.8 3.9-1.3.1-2.2-1.3-3-2.1-1 1-2.6 3-4.1 3.2-1 .1-1.9-.9-2.5-1.5h.1c-.7-.6-.1-1.7 0-2.4.3-1.1.7-2.3 1-3.4.3-1 .7-2 1.1-3 .4-1 .7-.9 1.7-.3.7.4 1.8 1.2 1.8 2 0 .7-.5 1.6-.8 2.3-.3.8-.6 1.6-.8 2.5 1.2-1.2 2.7-2.1 3.2-3.7l1.8-5.4c-.8.1-1 .3-1.6-.3-.7.9-2.2.1-2.9-.6-1-.9-.4-1.9.2-3 .3-.6.5-1 1.1-1 .6 0 1.4.5 1.9.9.6.5 1.3 1.1.5 1.9.4-.1 1.2-.1 1.5-.3.5-.4.8-2 1.1-2.6.4-.9.7-1.8 1.4-2.5.8-.7 1.8-1.2 2.8-1.7.7-.4 2-.8 2.1.4 0 .4-.8 1.8-1 2.2-.5 1.1-.9 2.2-1.3 3.3.7-.1 1.6-.5 2.3-.4.2-.1 1.2.3 1 .8zM288 176.4c-.1-.1-.2-.3-.4-.4-.6-.4-.6 0-1.1.5-.9.9-1.9 1.9-3 2.7.2-1.1.7-2.2 1.1-3.3.2-.7.9-1.8.5-2.5-.3-.5-1.1-1-1.5-1.3-1.1-.6-1.6-.7-2.6.1 1.5-1.9 2.9-3.9 4.2-5.9 1-1.7 2.7-4 2.8-6 .1-1.1-1.3-2.2-2.2-2.7-1.1-.7-1.8-.3-2.7.6-.7.7-1.3 1.5-1.8 2.4-2.6 3.9-4.5 8.3-6.1 12.8-.5 1.3-.9 2.5-1.3 3.8-.3 1.1-1 1.7-1.8 2.5-1.3 1.3-3.3 3-5.3 3 .1-1.5.6-3.3 1.4-4.6-.2.4.2 1 .7 1.2.8.3 2.2-.7 2.8-1.2.9-.7 1.3-1.2.7-2.2-.4-.6-1-1.2-1.6-1.6-1.1-.9-1.9-.8-3.2-.2-1.2.6-2.2 1.4-3 2.4-.8 1-1.5 2.1-1.9 3.3-.5 1.3-1.4 1.9-2.3 2.9 0-1.2 1-2.8 1.4-4 .3-1 .2-1.3-.6-2-.6-.5-1.5-1.4-2.4-1.3-1.1.2-2.2 1.9-2.8 2.7-.8-.8-1.7-1.3-2.8-1.8-.6-.3-.5-.3-.8.1-.2.2-.3.9-.4 1.2l-.9 2.7c-.7 2.4-4.3 5.7-7 5.7 0-.9.4-.9 1.1-1.4.6-.3 1.1-.7 1.6-1.1 1-.7 2.3-1.6 3-2.7 1-1.5-.7-3.6-2.2-4.1-2-.6-4.6 1.6-5.8 3.1-.8 1-1.4 2.1-1.8 3.4-.3 1.1-1.4 2-2.3 2.7.4-1.1 1.8-3.6 1.3-4.7-.6-1.2-2.4-1.4-3.3-2.2-.3-.3-.4-.5-.7-.9-.3-.4-.7-.7-1.1-.9-.7-.3-.9.1-1.6.4-.9.5-1.9.9-2.8 1.3 2.8-4.9 6-9.5 8.7-14.4.8-1.5 3.8-1.9 5.3-2.3 3.1-.9 6.3-1.6 9.5-1.4-.2-1.1-.6-2.6-1.3-3.6-.6-.9-1.1-.8-2.1-.6-2.5.4-4.9.9-7.3 1.5-5.4 1.5-10.6 3.5-15.5 6-4.5 2.3-8.7 5.1-12.3 8.7-.8.8-1.6 1.6-2.1 2.6-.9 1.5-.8 2.3.2 3.7.6.7 1.3 1.6 2.1 2.2 1.1.8 2.7.2 3.9-.2.4-.1 1.4-.3 1.6-.7.1-.2.1-.6.2-.8.2-.8.7-2 .6-2.8 0-.4.1-.3-.3-.7-.4-.4-.3-.3-.8-.2-1.3.3-2.5 1.5-3.8 2 1.9-2.6 4.6-4.7 7.2-6.5 3-2.1 6.3-4 9.7-5.5-3.3 4.6-6.6 9.3-9.4 14.2-.5.8-.6 1-1.5 1.2-.6.2-1.3.3-1.9.5-1.3.3-1.8.5-2.4 1.7-.3.6-.3 1.5.5 1.8.6.2 2.1-.4 2.7-.5-1.7 3.2-3.3 6.5-4.8 9.8-.1.2-.7 1.2-.6 1.4 0 .1.2.2.3.3.4.6.5.4 1 .3 1.1-.3 3.5-.8 4.2-1.7.4-.5.6-1.5.9-2.1.4-.9.8-1.7 1.3-2.6.8-1.6 1.6-3.2 2.5-4.7.5-.8.8-1.9 1.7-2.2.7-.3 1.6-.4 2.3-.6.6-.2 1.3-.3 1.9-.6.7-.4.6-.7 1.4-.2-.7.8-1.3 1.7-1.9 2.6-.2.3-.7.7-.8 1.1-.1.4-.1.2.2.6.6.8.8.6 1.5 0 .8-.8 1.7-1.6 2.4-2.5-.3 1.1-.8 2.2-.9 3.3-.1.9.4 1.3 1 1.9 2.2 1.9 4.1-.8 5.7-2.2.9 1.1 2.1 2.4 3.6 2.1 1.2-.2 2.4-.7 3.4-1.4.5-.3 1-.6 1.5-1 .3-.2.8-.9 1.2-1 .9-.3 2.4 2.9 3.8 1.8.3-.3.6-1.3.7-1.7.2-.5.5-1.1.8-1.6.6-1.1 1.2-2.1 1.9-3.2-.2 1.1-1.2 2.5-.9 3.6.1.5.7 1 1.1 1.3 2.1 1.8 4.2-.6 5.7-2.2.9 1.3 2.2 2.5 3.9 2.1 2.5-.5 4.6-2 6.4-3.7 0 1.1 2.9 2.7 3.5 2 .4-.4.5-1.6.8-2.1.3-.7.6-1.4 1-2.1.6-1.2 1.3-2.3 2.2-3.4-.4 1.3-1.7 3.9-.8 5.1.7.9 1.9 1.7 3.1 1.4 1.6-.4 3.1-2.2 4.2-3.3.4-.4 1.6-1.3 1.8-1.9-.5-.6-.8-.7-1.2-1.1zm-4.7-12.4c.4-.9.9-1.8 1.4-2.7-.4 1-.9 1.9-1.4 2.8v-.1c.4-.9 0 .1 0 0zm-14.7 13.3c.1-.1.1-.2.2-.2-.2.3-.4.6-.5.8 0-.3.2-.4.3-.6zm-23 3.3c.2-.4.5-.7.8-1-.2.6-.6 1.1-1.1 1.6.1-.3.2-.5.3-.6.3-.4-.1.1 0 0z"/></g><g><path fill="#E95858" d="M353.1 150.3c.3.3.4.5.5.6-.5 1.4-1.1 2.9-1.7 4.3-.6 1.5-1.1 2.9-1.7 4.2-.6 1.4-1.1 2.7-1.7 3.9-.6 1.2-1.1 2.4-1.5 3.4-.4-.1-.9-.2-1.3-.4s-.7-.4-.9-.7c.3-.9.7-1.8 1-2.9.3-1.1.7-2.3 1.1-3.7.4-1.4.8-3 1.3-4.8.5-1.8 1-3.9 1.6-6.2.4.1.8.3 1.2.6.4.3.8.5 1.2.8.3.4.6.6.9.9zM338.9 170c.6-.6 1.2-1.2 1.8-1.9l.7.7c-.3.4-.7.8-1.1 1.2l-1.3 1.3c-.5.4-.9.8-1.4 1.2-.5.4-.9.8-1.4 1.1-.4.3-.8.6-1.2.8-.4.2-.7.3-1 .4h-.2c-.2 0-.3 0-.5-.1-.3-.1-.5-.2-.8-.3-.3-.1-.5-.3-.7-.4-.2-.2-.3-.3-.3-.5 0-.1.1-.2.2-.3.1-.1.3-.2.5-.4s.5-.5.7-.9c.3-.4.6-1 1-1.7.2-.4.4-.8.6-1.3.2-.4.3-.8.5-1.2.1-.4.2-.7.3-1 .1-.3.1-.4.1-.5v-.2l-.1-.1h-.1c-.1.1-.4.4-.9.8-.4.5-1 1.2-1.6 2.1-.6.9-1.2 2-1.9 3.2-.7 1.2-1.3 2.7-1.9 4.2l-1.5 4.5c-.5 1.5-1 3.1-1.4 4.6l-3.9 1.5c.6-1.9 1.2-3.7 1.9-5.5.7-1.8 1.3-3.6 1.9-5.5.4-1.1.8-2.3 1.2-3.4l-.3.3c-.4.4-.8.8-1.3 1.2-.4.4-.9.8-1.3 1.1-.4.3-.8.6-1.2.8-.4.2-.7.4-.9.4h-.1c-.1 0-.3 0-.5-.1l-.6-.3-.5-.5c-.1-.2-.2-.4-.2-.6 0-.2.1-.5.2-1s.3-1.1.5-1.7c-.5.7-.9 1.3-1.4 1.9-.5.6-.9 1-1.2 1.4l-1 1c-.3.3-.5.4-.6.6-.1.1-.2.1-.3.2-.1 0-.2.1-.3.1h-.1c-.2 0-.3 0-.5-.1s-.5-.2-.7-.4c-.2-.2-.4-.3-.5-.5-.1-.2-.2-.4-.2-.6 0-.2.1-.6.2-1.2.2-.6.4-1.2.6-2 .3-.8.6-1.7.9-2.7.3-1 .7-2 1.1-3.1l.1-.1h.1c.2 0 .5.1.8.1.3.1.7.2 1 .3.3.1.6.2.8.3l.4.2c0 .1-.1.3-.2.6s-.3.7-.5 1.1c-.2.4-.4.9-.5 1.3-.2.5-.4.9-.5 1.4-.2.4-.3.8-.4 1.2-.1.4-.2.6-.2.8l.1.1c.1 0 .3-.2.5-.4.3-.3.6-.7 1-1.2s.9-1.2 1.4-2.1c.5-.8 1.1-1.9 1.6-3l.4-1.3c0-.1.1-.1.2-.2.1 0 .3.1.5.2s.5.2.8.4c.3.2.5.3.7.5.2.2.3.3.4.3v.4c-.1.3-.2.7-.4 1.1-.1.4-.3.8-.4 1.3-.1.4-.3.9-.4 1.3-.1.4-.3.9-.4 1.2-.1.4-.2.7-.3 1-.1.3-.1.5-.1.6l.1.1c.1 0 .3-.1.5-.3.2-.2.5-.4.8-.6.3-.3.6-.5.9-.9l.9-.9.8-.8.3-.3c.6-1.7 1.2-3.5 1.7-5.2 0-.1.1-.2.1-.3l.2-.1c.2 0 .4.1.6.2.2.1.5.2.7.4.2.2.4.3.6.5l.4.4v.2c0 .1-.1.2-.1.3l-.5 1.7c.6-.8 1.1-1.5 1.5-2 .5-.5.9-1 1.2-1.3.4-.3.7-.5.9-.7.3-.1.4-.2.6-.2h.1c.1 0 .3 0 .5.1s.4.2.6.4c.2.2.4.3.5.5l.4.4c.1.1.2.2.2.3v.4c0 .5-.1 1.1-.2 1.7-.2.6-.4 1.2-.7 1.9l-.9 1.8c-.3.6-.7 1.1-1 1.5l.9-.6c.3-.2.6-.5.9-.7.3-.3.6-.5.9-.8l1.1-1.1zM346.2 169.7l.2.2c0 .1-.1.3-.2.6s-.3.7-.5 1c-.2.4-.4.7-.6 1-.2.3-.3.4-.4.5h-.3c-.2 0-.3-.1-.5-.2s-.4-.1-.6-.2l-.6-.3c-.2-.1-.3-.2-.4-.2-.1-.1-.2-.1-.2-.2 0-.2.1-.5.2-.9s.3-.7.5-1.1c.2-.4.4-.7.5-1 .2-.3.3-.4.4-.4h.1c.1 0 .2 0 .3.1.2.1.4.1.6.2l.6.3.6.3c0 .2.2.2.3.3zM297.9 166.7c-.2-.1-.3-.2-.3-.2 0-.2.1-.5.2-.9s.3-.7.4-1.1c.2-.4.3-.7.5-.9s.3-.4.4-.4h.1c.2 0 .3 0 .5.1.3.1.5.2.8.3.3.1.5.2.6.4.2.1.3.2.3.3 0 0 0 .2-.1.3-.1.2-.1.4-.2.6-.1.2-.2.5-.3.7-.1.3-.2.5-.4.7-.1.2-.2.4-.3.5-.1.2-.2.2-.2.2h-.1c-.2 0-.3 0-.6-.1s-.5-.1-.8-.2c-.1-.1-.3-.2-.5-.3zM311 164.3c.1 0 .1.1.1.2s-.1.3-.2.5-.3.4-.4.6c-.2.2-.3.4-.4.5l-.1.1c-.1 0-.1.1-.2.1l-3.1.4c-.4 1-.7 2-1.1 3-.3 1-.7 1.9-.9 2.8-.3.9-.5 1.7-.6 2.4-.2.7-.2 1.3-.2 1.8l.1.1c.1 0 .3-.1.5-.3.2-.2.5-.4.8-.6.3-.3.6-.5.9-.8l.9-.9.8-.8.5-.5.3.3.4.4c-.2.3-.5.6-.9 1-.3.4-.7.8-1.1 1.2l-1.2 1.2c-.4.4-.8.8-1.3 1.1-.4.3-.8.6-1.1.8-.4.2-.6.4-.9.4h-.1c-.2 0-.4 0-.6-.2-.3-.1-.6-.3-.8-.5-.3-.2-.5-.4-.7-.6-.2-.2-.3-.4-.3-.6 0-.2 0-.5.1-.9l-.2.2-1.2 1.2c-.4.4-.8.8-1.3 1.1-.4.3-.8.6-1.1.8-.4.2-.6.4-.9.4h-.1c-.1 0-.3 0-.5-.1s-.5-.2-.7-.3c-.2-.1-.4-.3-.6-.5-.2-.2-.2-.4-.2-.6.1-.5.2-1 .4-1.7.2-.6.4-1.3.6-1.9.2-.7.4-1.3.6-1.9.2-.6.4-1.2.6-1.7s.3-.9.5-1.2c.1-.3.2-.5.3-.5.1 0 .2.1.5.1.2.1.5.2.8.4.3.2.5.3.7.5.2.2.3.4.3.5V171.6c-.1.3-.2.6-.3 1-.1.4-.3.8-.4 1.2-.1.4-.3.8-.4 1.2-.1.4-.3.8-.4 1.2-.1.4-.2.7-.3.9-.1.3-.1.5-.1.6l.1.1c.1 0 .3-.1.5-.3.2-.2.5-.4.8-.7l.9-.9.9-.9.8-.8c.1-.4.2-.7.3-1.1.3-.9.6-1.9 1-3s.7-2.1 1.1-3.1l-2.2.3v-.3c0-.1.1-.3.2-.4.1-.1.2-.3.2-.4l.3-.3 2-.4c.3-.8.6-1.5.8-2.1.3-.7.5-1.2.7-1.7.1-.1.1-.3.2-.4.1-.1.1-.3.3-.4.1-.2.3-.3.4-.5.2-.2.4-.4.7-.5.2-.2.5-.3.8-.5.3-.2.6-.4 1-.5.3-.2.6-.3.9-.4.3-.1.4-.2.6-.2h.2v.1c-.1.1-.2.4-.3.7-.2.4-.4.9-.6 1.4-.2.6-.5 1.2-.8 2-.3.7-.6 1.5-.9 2.3l3.3-.5zM287.3 175.7l.3.3.4.4c-.2.3-.5.6-.9 1-.3.4-.7.8-1.1 1.2l-1.2 1.2c-.4.4-.8.7-1.2 1.1-.4.3-.8.6-1.1.8-.4.2-.6.3-.9.4-.3 0-.5 0-.7-.1-.3-.1-.5-.2-.8-.3-.2-.1-.5-.3-.6-.4-.2-.2-.3-.3-.3-.5 0-.5.1-1 .3-1.6.2-.6.3-1.3.6-1.9.2-.7.4-1.3.7-2 .2-.7.5-1.2.7-1.8-.1 0-.2.2-.5.4-.2.3-.5.6-.9 1-.3.4-.7.9-1.1 1.5-.4.6-.8 1.2-1.2 1.9-.4.7-.8 1.4-1.1 2.2-.4.8-.7 1.6-.9 2.5 0 .1-.1.2-.1.3-.1.1-.2.1-.3.1-.2 0-.3 0-.4-.1l-.6-.3-.6-.3c-.2-.1-.4-.2-.5-.3l-.3-.4c0-.1-.1-.2-.1-.3 0-.5.1-1.1.2-1.7l-.5.5c-.7.7-1.5 1.4-2.3 2-.8.6-1.6 1.1-2.5 1.5-.9.4-1.8.7-2.7.8-.3 0-.5 0-.6-.1-.2-.1-.5-.2-.7-.4-.3-.2-.5-.4-.7-.6-.2-.3-.4-.5-.6-.8-.1-.1-.1-.2-.1-.4v-.3l-1 1c-.4.4-.8.8-1.3 1.1-.4.3-.8.6-1.1.8-.4.2-.6.4-.9.4-.3 0-.4 0-.6-.1-.2-.1-.5-.2-.7-.3-.2-.1-.4-.3-.6-.5-.2-.2-.2-.4-.2-.6.1-.4.2-1 .4-1.5.2-.6.3-1.2.5-1.8l.6-1.8c.2-.6.4-1.2.6-1.7-.2.3-.5.7-.9 1.1-.4.4-.8 1-1.3 1.7s-1 1.5-1.5 2.5-1 2.1-1.5 3.3c-.1.2-.1.3-.2.4-.1.1-.2.1-.3.2-.3 0-.4 0-.6-.1-.2-.1-.5-.2-.7-.3-.2-.1-.5-.3-.7-.5-.2-.2-.4-.3-.6-.5 0-.1 0-.3.1-.6s.1-.7.2-1.2c-.4.3-.7.6-1.1 1-.8.8-1.6 1.4-2.4 1.9-.8.5-1.5.9-2.2 1.2-.7.3-1.4.5-2 .5-.4 0-.7-.1-.9-.2-.3-.2-.7-.4-1-.6-.3-.3-.5-.5-.7-.8-.2-.3-.3-.6-.3-.8-.3.2-.6.6-1 .9-.4.4-.8.8-1.3 1.1-.4.3-.8.6-1.1.8-.4.2-.6.4-.9.4-.2 0-.4 0-.6-.1-.2-.1-.5-.2-.7-.3-.2-.1-.4-.3-.6-.5-.2-.2-.2-.4-.2-.6.2-.7.3-1.4.5-1.9.2-.6.3-1 .4-1.4.1-.4.3-.7.4-1 .1-.2.2-.4.2-.6-.1 0-.2-.1-.4-.1-.1 0-.2-.1-.3-.1-.2.2-.4.4-.6.7-.2.2-.4.5-.6.7-.2.2-.4.5-.6.7-.2.2-1.8 1.7-1.9 1.8l-.4-.2c.1-.2 2.7-3.6 3.1-4.1-.3-.1-.5-.2-.7-.4-.2-.1-.4-.2-.5-.3-.2-.1-.3-.2-.5-.3-.3.1-.5.4-.7.6-.2.1-.5.2-.8.3-.3.1-.7.2-1.1.3-.4.1-.9.2-1.3.4-.5.1-1 .3-1.5.4-.6 1.1-1.2 2.1-1.8 3.2-.6 1.1-1.1 2.1-1.6 3.1s-1 1.9-1.4 2.9c-.4.9-.8 1.8-1.1 2.5-.2.1-.6.3-1 .4-.4.2-.9.3-1.4.5-.5.2-.9.3-1.3.5-.4.1-.7.3-.9.3 1-2.3 2-4.4 3-6.5 1-2 2-4 3-5.9l-1.5.3c-.5.1-.9.2-1.3.3-.4.1-.7.1-.9.2-.2.1-.4.1-.4.1-.1-.2 0-.4.1-.6.1-.2.2-.5.4-.7.1-.3.3-.5.4-.7.2-.2.3-.3.4-.3.8-.2 1.6-.4 2.3-.6l2.1-.6c1.7-2.9 3.4-5.7 5.2-8.3 1.8-2.6 3.6-5.2 5.4-7.7 0-.1.1-.1.1-.3l-.1-.2c-2.4.9-4.4 1.9-6.2 2.9-1.8 1-3.4 2-4.8 3s-2.6 1.9-3.6 2.8c-1 .9-1.8 1.7-2.5 2.3-.6.7-1.1 1.2-1.4 1.7-.3.4-.5.7-.5.7.6.1 1 0 1.4-.1.4-.1.8-.3 1.1-.5.4-.2.7-.4 1.1-.6.4-.2 1.7-.9 2-1.1 0 .2-.8 3.8-.8 4-.1.1-.3.2-.6.3-.3.1-.6.2-1 .3s-.8.2-1.3.3c-.5.1-1 .2-1.6.3-.3 0-.5-.1-.7-.2-.2-.1-.4-.3-.6-.5-.2-.2-.4-.5-.7-.7-.2-.3-.4-.5-.6-.8-.2-.2-.3-.5-.4-.7-.1-.2-.2-.4-.2-.5 0-.6.2-1.4.7-2.1.5-.8.8-1.3 1.9-2.4 8.1-8.7 25.4-15.4 36.8-16.7.3.6 1 2.1 1.3 3.6h-1c-5.8 0-13 3-13.5 3.1-.2.7-2.5 4.2-2.9 4.8-.4.6-.8 1.4-1.3 2.2-.5.9-1.1 1.8-1.7 2.8-.6 1-1.2 2.1-1.9 3.2s-1.3 2.3-2 3.5c.9-.4 1.7-.7 2.4-1 .7-.3 1.2-.6 1.6-.8l1-.5c.1-.1.2-.1.2-.2.1-.1.1-.2.2-.2h.2c.1 0 .2.1.4.1.1 0 .3.1.4.2.1.1.2.1.2.2V178.1c.4.2.8.3 1.2.5l1.2.6c.4.2.8.4 1.2.7l.3.3v.3c-.1.4-.3.9-.5 1.5s-.4 1.1-.6 1.7c-.2.5-.3 1-.5 1.5-.1.4-.2.7-.2.9.2.1.4 0 .6-.2.2-.2.5-.4.8-.6l.9-.9.9-.9c.1-.2.1-.4.2-.6.2-.8.6-1.5.9-2.1.4-.6.8-1.2 1.3-1.7s1-1 1.5-1.3c.5-.4 1.1-.7 1.6-.9.5-.2 1-.4 1.5-.4h.2c.2 0 .5.1.7.2.3.1.6.3.9.6.3.2.5.5.6.8.2.3.2.5.2.8 0 .4-.1.8-.4 1.2-.3.4-.7.9-1.3 1.3-.5.5-1.2 1-1.9 1.5-.8.5-1.6 1.1-2.5 1.6v.8c0 .3.1.5.2.6.1.1.2.1.4.1h.4c.7-.1 1.3-.3 1.9-.6.6-.3 1.2-.7 1.7-1.2.6-.4 1.1-1 1.6-1.5.4-.4.8-.9 1.2-1.3.1-.4.2-.9.4-1.3.2-.7.4-1.3.7-2 .2-.7.5-1.4.8-2 .4.2.9.3 1.5.6.5.2 1 .5 1.5.9-.1.4-.3.7-.4 1.1-.1.4-.2.7-.4 1.1.6-.9 1.2-1.6 1.7-2.1s.9-1 1.2-1.3c.3-.3.6-.5.8-.7.2-.1.4-.2.5-.2.2 0 .4 0 .6.1.3.1.5.2.8.4.3.2.5.3.7.5.2.2.3.4.3.5l-.1.3c-.1.3-.2.6-.3 1-.1.4-.3.8-.4 1.2-.1.4-.3.8-.4 1.2-.1.4-.3.8-.4 1.2-.1.4-.2.7-.3.9-.1.3-.1.5-.1.6.2.1.4 0 .6-.2.2-.2.5-.4.8-.7.3-.3.6-.5.9-.9l.9-.9c0-.1.1-.3.1-.4.2-.6.4-1.3.8-1.9.3-.6.7-1.2 1.2-1.7s.9-1 1.5-1.5c.5-.4 1.1-.8 1.7-1.1.6-.3 1.2-.5 1.8-.6.1 0 .2 0 .4.1s.3.2.5.3c.2.1.4.3.6.5.2.2.4.4.5.6.2.2.3.4.4.6.1.2.1.4.1.5 0 .2-.2.4-.5.7-.3.3-.6.5-1 .8-.4.3-.8.5-1.2.7-.4.2-.8.3-1.1.4-.2 0-.3 0-.3-.1s.1-.3.2-.5c.2-.3.3-.5.5-.8.2-.3.4-.6.5-.9.2-.3.2-.5.2-.7 0-.1 0-.2-.1-.2l-.2-.1c-.2 0-.5.2-.7.4-.2.2-.5.6-.7 1-.2.4-.5.8-.7 1.3l-.6 1.5c-.2.5-.3 1-.4 1.5-.1.5-.2.9-.2 1.3 0 .2.1.4.2.5.1 0 .2.1.4.1h.3c.7-.1 1.4-.3 2-.6.6-.3 1.3-.7 1.9-1.2.6-.5 1.2-1 1.7-1.5l1.3-1.3c.2-.7.4-1.5.7-2.3.4-1.3.9-2.6 1.4-4 .5-1.4 1.1-2.7 1.7-4.1.6-1.3 1.2-2.6 1.9-3.9.7-1.2 1.3-2.3 2-3.3.6-1 1.2-1.7 1.8-2.4.6-.6 1.1-1 1.6-1.1.2 0 .5.1.7.3.2.1.5.3.7.4.2.2.4.3.6.5l.4.4c.1.1.1.2.1.3v.3c0 .4-.1.9-.3 1.5-.2.6-.5 1.3-.9 2-.4.8-.8 1.6-1.4 2.5-.5.9-1.1 1.8-1.8 2.7-.6.9-1.3 1.9-2.1 2.9-.7 1-1.5 1.9-2.4 2.8l-.6 1.8c.6-.7 1.1-1.2 1.5-1.7.5-.5.9-.9 1.2-1.1.4-.3.7-.5.9-.6.3-.1.4-.2.6-.2.1 0 .3 0 .5.1s.5.2.7.3c.3.1.5.3.7.4l.4.4v.2c0 .1 0 .2-.1.2-.1.3-.2.6-.3 1-.1.4-.3.8-.4 1.3-.2.4-.3.9-.4 1.3-.2.4-.3.9-.4 1.2-.1.4-.2.7-.3 1-.1.3-.1.5-.1.6.3.1.5 0 .7-.2.3-.2.5-.4.9-.6.3-.3.6-.5 1-.9.3-.3.6-.6 1-.9l.8-.8c.2-.7.4-.9.5-1zm-6.8-7.8c-.2.6-.5 1.1-.7 1.7.7-1 1.4-2 2-3.1l1.8-3c.5-.9.9-1.8 1.2-2.6.3-.8.5-1.4.5-1.9 0-.2 0-.3-.1-.3s-.3.2-.6.6c-.3.4-.6.9-.9 1.6-.4.7-.7 1.4-1.2 2.3-.4.9-.9 1.9-1.3 2.9-.3.7-.5 1.3-.7 1.8m-36.4 13.3c-.2.5-.4 1.1-.6 1.6.4-.3.8-.6 1.1-1s.7-.7 1-1c.3-.4.5-.7.7-1.1.2-.4.3-.7.3-1 0-.1 0-.2-.1-.2 0-.1-.1-.1-.2-.1h-.1c-.2 0-.4.2-.7.4-.2.3-.5.6-.7 1-.2.4-.5.9-.7 1.4"/></g></svg>